<?xml version="1.0" encoding="UTF-8"?>
<svg version="1.1" xmlns="http://www.w3.org/2000/svg" width="391" height="387">
<path d="M0 0 C129.03 0 258.06 0 391 0 C391 127.71 391 255.42 391 387 C261.97 387 132.94 387 0 387 C0 259.29 0 131.58 0 0 Z " fill="#0176CE" transform="translate(0,0)"/>
<path d="M0 0 C0.80806595 -0.01517166 1.6161319 -0.03034332 2.44868469 -0.04597473 C25.75070552 -0.40242407 45.28822488 2.08051977 67.25 10.30859375 C67.25 10.96859375 67.25 11.62859375 67.25 12.30859375 C67.83007812 12.334375 68.41015625 12.36015625 69.0078125 12.38671875 C74.56894254 12.79049717 77.68667501 13.91263096 82.25 17.30859375 C83.36375 17.58703125 83.36375 17.58703125 84.5 17.87109375 C86.25 18.30859375 86.25 18.30859375 88.25 21.30859375 C90.1966071 22.52278208 90.1966071 22.52278208 92.375 23.49609375 C93.46167969 24.01236328 93.46167969 24.01236328 94.5703125 24.5390625 C95.12460937 24.79300781 95.67890625 25.04695313 96.25 25.30859375 C96.25 25.96859375 96.25 26.62859375 96.25 27.30859375 C96.9925 27.55609375 97.735 27.80359375 98.5 28.05859375 C101.49505695 29.41998327 102.97833173 30.96593585 105.25 33.30859375 C106.90948148 34.3204727 108.57580562 35.32124835 110.25 36.30859375 C112.0625 37.87109375 112.0625 37.87109375 113.25 39.30859375 C113.25 39.96859375 113.25 40.62859375 113.25 41.30859375 C113.91 41.30859375 114.57 41.30859375 115.25 41.30859375 C115.58 42.62859375 115.91 43.94859375 116.25 45.30859375 C116.848125 45.41171875 117.44625 45.51484375 118.0625 45.62109375 C120.56258286 46.40683408 121.62535082 47.27778228 123.25 49.30859375 C123.25 49.96859375 123.25 50.62859375 123.25 51.30859375 C123.80171875 51.50582031 124.3534375 51.70304687 124.921875 51.90625 C128.21383319 53.8891577 130.22578672 56.72152231 132.5 59.74609375 C132.95890625 60.33197266 133.4178125 60.91785156 133.890625 61.52148438 C137.25 65.92566499 137.25 65.92566499 137.25 69.30859375 C137.91 69.30859375 138.57 69.30859375 139.25 69.30859375 C139.91 70.95859375 140.57 72.60859375 141.25 74.30859375 C141.91 74.30859375 142.57 74.30859375 143.25 74.30859375 C155.51222222 99.98927751 155.51222222 99.98927751 158.25 110.30859375 C158.56453125 111.02660156 158.8790625 111.74460937 159.203125 112.484375 C160.55026415 116.11863473 161.16466458 119.74699063 161.8125 123.55859375 C162.24719538 128.31817127 162.24719538 128.31817127 164.25 132.30859375 C164.38891132 135.13970216 164.46331913 137.94442398 164.48828125 140.77734375 C164.496353 141.64564819 164.50442474 142.51395264 164.51274109 143.40856934 C164.52661848 145.26145417 164.53732415 147.11436495 164.54516602 148.96728516 C164.55654772 150.83292305 164.57677245 152.69853211 164.60668945 154.56396484 C164.80835181 167.13913351 163.63378236 178.20632331 160.25 190.30859375 C159.63993947 192.82405473 159.0695304 195.3459469 158.5 197.87109375 C158.25765625 198.92425781 158.0153125 199.97742188 157.765625 201.0625 C157.59546875 201.80371094 157.4253125 202.54492188 157.25 203.30859375 C156.59 203.30859375 155.93 203.30859375 155.25 203.30859375 C155.23582031 203.86546875 155.22164063 204.42234375 155.20703125 204.99609375 C154.80967765 211.3537513 152.89924856 215.18145637 149.25 220.30859375 C148.5384375 221.51515625 148.5384375 221.51515625 147.8125 222.74609375 C146.3800446 225.0953206 144.86332831 227.34913027 143.3125 229.62109375 C140.56326273 233.70724191 138.35357763 237.85871799 136.25 242.30859375 C135.59 242.30859375 134.93 242.30859375 134.25 242.30859375 C134.25 243.29859375 134.25 244.28859375 134.25 245.30859375 C133.59 245.30859375 132.93 245.30859375 132.25 245.30859375 C131.981875 245.88609375 131.71375 246.46359375 131.4375 247.05859375 C130.25 249.30859375 130.25 249.30859375 128.6875 251.37109375 C127.06311272 253.35040871 127.06311272 253.35040871 126.25 256.30859375 C125.59 256.30859375 124.93 256.30859375 124.25 256.30859375 C123.92 257.29859375 123.59 258.28859375 123.25 259.30859375 C122.26 259.30859375 121.27 259.30859375 120.25 259.30859375 C119.981875 259.94796875 119.71375 260.58734375 119.4375 261.24609375 C118.25 263.30859375 118.25 263.30859375 115.25 264.30859375 C115.085 264.96859375 114.92 265.62859375 114.75 266.30859375 C114.585 266.96859375 114.42 267.62859375 114.25 268.30859375 C113.26 268.63859375 112.27 268.96859375 111.25 269.30859375 C110.22702078 270.28507392 109.23095748 271.28990713 108.25 272.30859375 C103.56428571 276.30859375 103.56428571 276.30859375 101.25 276.30859375 C101.01023437 276.92089844 100.77046875 277.53320312 100.5234375 278.1640625 C98.94313489 280.82536966 97.68104416 281.37244951 94.875 282.62109375 C90.70252668 284.58246077 86.68397998 286.69465606 82.6875 288.99609375 C81.16962891 289.86814453 81.16962891 289.86814453 79.62109375 290.7578125 C77.14928107 292.09023493 77.14928107 292.09023493 76.25 294.30859375 C75.26 294.30859375 74.27 294.30859375 73.25 294.30859375 C73.25 294.96859375 73.25 295.62859375 73.25 296.30859375 C68.13148078 298.37396116 63.73118255 299.53930497 58.25 300.30859375 C56.0184672 300.96886001 53.83094726 301.72061631 51.6328125 302.484375 C49.20441308 303.32436234 46.76768101 304.11298927 44.3125 304.87109375 C43.58160156 305.09925781 42.85070312 305.32742188 42.09765625 305.5625 C34.53803904 307.54314045 27.36696422 308.61265594 19.55078125 308.57421875 C18.6714946 308.5761322 17.79220795 308.57804565 16.88627625 308.58001709 C15.04519359 308.58136671 13.20410101 308.57775667 11.36303711 308.56933594 C8.55886407 308.5585798 5.75532589 308.56929289 2.95117188 308.58203125 C1.15104027 308.58071019 -0.64909095 308.57814891 -2.44921875 308.57421875 C-3.27854416 308.57826721 -4.10786957 308.58231567 -4.96232605 308.58648682 C-9.9480727 308.5466011 -14.01416033 307.8711025 -18.75 306.30859375 C-20.45384089 305.95300956 -22.16199904 305.61704408 -23.875 305.30859375 C-27.38595931 304.63076149 -30.45999902 303.73129688 -33.75 302.30859375 C-34.80703125 302.01339844 -35.8640625 301.71820313 -36.953125 301.4140625 C-48.44137665 298.06923203 -59.17158543 292.8178451 -69.75 287.30859375 C-69.75 286.64859375 -69.75 285.98859375 -69.75 285.30859375 C-71.4 284.64859375 -73.05 283.98859375 -74.75 283.30859375 C-74.75 282.64859375 -74.75 281.98859375 -74.75 281.30859375 C-75.43449219 281.25574219 -76.11898437 281.20289063 -76.82421875 281.1484375 C-80.90314642 279.97758376 -83.41160539 277.63559103 -86.5625 274.87109375 C-87.15998047 274.36771484 -87.75746094 273.86433594 -88.37304688 273.34570312 C-89.87749093 272.05102155 -91.31955026 270.68459006 -92.75 269.30859375 C-92.75 268.64859375 -92.75 267.98859375 -92.75 267.30859375 C-93.61625 266.93734375 -93.61625 266.93734375 -94.5 266.55859375 C-97.07939979 265.12559387 -98.81121592 263.52434699 -100.75 261.30859375 C-100.75 260.64859375 -100.75 259.98859375 -100.75 259.30859375 C-101.41 259.30859375 -102.07 259.30859375 -102.75 259.30859375 C-102.75 258.64859375 -102.75 257.98859375 -102.75 257.30859375 C-103.348125 257.04046875 -103.94625 256.77234375 -104.5625 256.49609375 C-108.68208607 254.25974702 -110.39084962 251.27196639 -112.75 247.30859375 C-113.8328125 245.97828125 -113.8328125 245.97828125 -114.9375 244.62109375 C-116.75 242.30859375 -116.75 242.30859375 -116.75 240.30859375 C-117.74 239.97859375 -118.73 239.64859375 -119.75 239.30859375 C-121.39820195 236.70616961 -121.75 235.44610596 -121.75 232.30859375 C-122.41 232.30859375 -123.07 232.30859375 -123.75 232.30859375 C-124.00394531 231.7775 -124.25789063 231.24640625 -124.51953125 230.69921875 C-126.60797265 226.29876265 -126.60797265 226.29876265 -129.4375 222.37109375 C-131.57597439 219.01063399 -131.50770321 215.21876271 -131.75 211.30859375 C-132.41 211.30859375 -133.07 211.30859375 -133.75 211.30859375 C-135.59964114 206.69629713 -137.22651269 202.03651678 -138.75 197.30859375 C-138.99008789 196.56867188 -139.23017578 195.82875 -139.47753906 195.06640625 C-146.78216598 171.45308168 -146.03235307 143.32593609 -140.75 119.30859375 C-140.49863281 118.10460937 -140.24726563 116.900625 -139.98828125 115.66015625 C-139.06769772 111.63686527 -138.15302662 108.09972008 -136.2734375 104.41015625 C-134.6718318 101.14945132 -133.77366571 98.07372864 -132.875 94.55859375 C-131.1770765 88.35919866 -128.8948885 82.90237084 -125.75 77.30859375 C-125.09 77.30859375 -124.43 77.30859375 -123.75 77.30859375 C-123.42 75.32859375 -123.09 73.34859375 -122.75 71.30859375 C-122.09 71.30859375 -121.43 71.30859375 -120.75 71.30859375 C-120.255 69.82359375 -120.255 69.82359375 -119.75 68.30859375 C-118.43733482 66.95490779 -117.10432675 65.62059779 -115.75 64.30859375 C-115.42 63.64859375 -115.09 62.98859375 -114.75 62.30859375 C-114.09 62.30859375 -113.43 62.30859375 -112.75 62.30859375 C-112.46125 61.38046875 -112.1725 60.45234375 -111.875 59.49609375 C-110.75 56.30859375 -110.75 56.30859375 -108.75 53.30859375 C-108.09 53.30859375 -107.43 53.30859375 -106.75 53.30859375 C-106.75 52.64859375 -106.75 51.98859375 -106.75 51.30859375 C-106.09 51.30859375 -105.43 51.30859375 -104.75 51.30859375 C-104.5025 50.73625 -104.255 50.16390625 -104 49.57421875 C-102.55683801 46.95848764 -100.86783778 45.16085919 -98.75 43.05859375 C-97.698125 41.99898437 -97.698125 41.99898437 -96.625 40.91796875 C-94.75 39.30859375 -94.75 39.30859375 -92.75 39.30859375 C-92.75 38.64859375 -92.75 37.98859375 -92.75 37.30859375 C-92.09 37.30859375 -91.43 37.30859375 -90.75 37.30859375 C-90.75 36.64859375 -90.75 35.98859375 -90.75 35.30859375 C-84 31.30859375 -84 31.30859375 -81.75 31.30859375 C-81.68425781 30.71433594 -81.61851563 30.12007812 -81.55078125 29.5078125 C-80.42600649 26.41879695 -78.75863206 25.72785857 -75.9375 24.12109375 C-75.06480469 23.61191406 -74.19210938 23.10273437 -73.29296875 22.578125 C-71.07028809 21.4684918 -69.17511816 20.77778911 -66.75 20.30859375 C-66.75 19.64859375 -66.75 18.98859375 -66.75 18.30859375 C-65.14967863 17.4678996 -63.54458829 16.6362787 -61.9375 15.80859375 C-61.04417969 15.34453125 -60.15085937 14.88046875 -59.23046875 14.40234375 C-56.75 13.30859375 -56.75 13.30859375 -53.75 13.30859375 C-53.75 12.64859375 -53.75 11.98859375 -53.75 11.30859375 C-49.295 10.81359375 -49.295 10.81359375 -44.75 10.30859375 C-44.75 9.64859375 -44.75 8.98859375 -44.75 8.30859375 C-43.62464844 8.03144531 -42.49929687 7.75429688 -41.33984375 7.46875 C-38.2591318 6.69941929 -35.19157543 5.89288492 -32.12890625 5.0546875 C-31.33806641 4.84005859 -30.54722656 4.62542969 -29.73242188 4.40429688 C-28.12178186 3.96621319 -26.51238937 3.52351634 -24.90429688 3.07617188 C-24.11216797 2.86283203 -23.32003906 2.64949219 -22.50390625 2.4296875 C-21.80595947 2.23818115 -21.1080127 2.0466748 -20.38891602 1.84936523 C-13.66490681 0.471469 -6.84734336 0.12724667 0 0 Z " fill="#0277CE" transform="translate(186.75,41.69140625)"/>
<path d="M0 0 C0.80806595 -0.01517166 1.6161319 -0.03034332 2.44868469 -0.04597473 C25.75070552 -0.40242407 45.28822488 2.08051977 67.25 10.30859375 C67.25 10.96859375 67.25 11.62859375 67.25 12.30859375 C67.83007812 12.334375 68.41015625 12.36015625 69.0078125 12.38671875 C74.56894254 12.79049717 77.68667501 13.91263096 82.25 17.30859375 C83.36375 17.58703125 83.36375 17.58703125 84.5 17.87109375 C86.25 18.30859375 86.25 18.30859375 88.25 21.30859375 C90.1966071 22.52278208 90.1966071 22.52278208 92.375 23.49609375 C93.46167969 24.01236328 93.46167969 24.01236328 94.5703125 24.5390625 C95.12460937 24.79300781 95.67890625 25.04695313 96.25 25.30859375 C96.25 25.96859375 96.25 26.62859375 96.25 27.30859375 C96.9925 27.55609375 97.735 27.80359375 98.5 28.05859375 C101.49505695 29.41998327 102.97833173 30.96593585 105.25 33.30859375 C106.90948148 34.3204727 108.57580562 35.32124835 110.25 36.30859375 C112.0625 37.87109375 112.0625 37.87109375 113.25 39.30859375 C113.25 39.96859375 113.25 40.62859375 113.25 41.30859375 C113.91 41.30859375 114.57 41.30859375 115.25 41.30859375 C115.58 42.62859375 115.91 43.94859375 116.25 45.30859375 C116.848125 45.41171875 117.44625 45.51484375 118.0625 45.62109375 C120.56258286 46.40683408 121.62535082 47.27778228 123.25 49.30859375 C123.25 49.96859375 123.25 50.62859375 123.25 51.30859375 C123.80171875 51.50582031 124.3534375 51.70304687 124.921875 51.90625 C128.21383319 53.8891577 130.22578672 56.72152231 132.5 59.74609375 C132.95890625 60.33197266 133.4178125 60.91785156 133.890625 61.52148438 C137.25 65.92566499 137.25 65.92566499 137.25 69.30859375 C137.91 69.30859375 138.57 69.30859375 139.25 69.30859375 C139.91 70.95859375 140.57 72.60859375 141.25 74.30859375 C141.91 74.30859375 142.57 74.30859375 143.25 74.30859375 C155.51222222 99.98927751 155.51222222 99.98927751 158.25 110.30859375 C158.56453125 111.02660156 158.8790625 111.74460937 159.203125 112.484375 C160.55026415 116.11863473 161.16466458 119.74699063 161.8125 123.55859375 C162.24719538 128.31817127 162.24719538 128.31817127 164.25 132.30859375 C164.38891132 135.13970216 164.46331913 137.94442398 164.48828125 140.77734375 C164.496353 141.64564819 164.50442474 142.51395264 164.51274109 143.40856934 C164.52661848 145.26145417 164.53732415 147.11436495 164.54516602 148.96728516 C164.55654772 150.83292305 164.57677245 152.69853211 164.60668945 154.56396484 C164.80835181 167.13913351 163.63378236 178.20632331 160.25 190.30859375 C159.63993947 192.82405473 159.0695304 195.3459469 158.5 197.87109375 C158.25765625 198.92425781 158.0153125 199.97742188 157.765625 201.0625 C157.59546875 201.80371094 157.4253125 202.54492188 157.25 203.30859375 C156.59 203.30859375 155.93 203.30859375 155.25 203.30859375 C155.23582031 203.86546875 155.22164063 204.42234375 155.20703125 204.99609375 C154.80967765 211.3537513 152.89924856 215.18145637 149.25 220.30859375 C148.5384375 221.51515625 148.5384375 221.51515625 147.8125 222.74609375 C146.3800446 225.0953206 144.86332831 227.34913027 143.3125 229.62109375 C140.56326273 233.70724191 138.35357763 237.85871799 136.25 242.30859375 C135.59 242.30859375 134.93 242.30859375 134.25 242.30859375 C134.25 243.29859375 134.25 244.28859375 134.25 245.30859375 C133.59 245.30859375 132.93 245.30859375 132.25 245.30859375 C131.981875 245.88609375 131.71375 246.46359375 131.4375 247.05859375 C130.25 249.30859375 130.25 249.30859375 128.6875 251.37109375 C127.06311272 253.35040871 127.06311272 253.35040871 126.25 256.30859375 C125.59 256.30859375 124.93 256.30859375 124.25 256.30859375 C123.92 257.29859375 123.59 258.28859375 123.25 259.30859375 C122.26 259.30859375 121.27 259.30859375 120.25 259.30859375 C119.981875 259.94796875 119.71375 260.58734375 119.4375 261.24609375 C118.25 263.30859375 118.25 263.30859375 115.25 264.30859375 C115.085 264.96859375 114.92 265.62859375 114.75 266.30859375 C114.585 266.96859375 114.42 267.62859375 114.25 268.30859375 C113.26 268.63859375 112.27 268.96859375 111.25 269.30859375 C110.22702078 270.28507392 109.23095748 271.28990713 108.25 272.30859375 C103.56428571 276.30859375 103.56428571 276.30859375 101.25 276.30859375 C101.01023437 276.92089844 100.77046875 277.53320312 100.5234375 278.1640625 C98.94313489 280.82536966 97.68104416 281.37244951 94.875 282.62109375 C90.70252668 284.58246077 86.68397998 286.69465606 82.6875 288.99609375 C81.16962891 289.86814453 81.16962891 289.86814453 79.62109375 290.7578125 C77.14928107 292.09023493 77.14928107 292.09023493 76.25 294.30859375 C75.26 294.30859375 74.27 294.30859375 73.25 294.30859375 C73.25 294.96859375 73.25 295.62859375 73.25 296.30859375 C68.13148078 298.37396116 63.73118255 299.53930497 58.25 300.30859375 C56.0184672 300.96886001 53.83094726 301.72061631 51.6328125 302.484375 C49.20441308 303.32436234 46.76768101 304.11298927 44.3125 304.87109375 C43.58160156 305.09925781 42.85070312 305.32742188 42.09765625 305.5625 C34.53803904 307.54314045 27.36696422 308.61265594 19.55078125 308.57421875 C18.6714946 308.5761322 17.79220795 308.57804565 16.88627625 308.58001709 C15.04519359 308.58136671 13.20410101 308.57775667 11.36303711 308.56933594 C8.55886407 308.5585798 5.75532589 308.56929289 2.95117188 308.58203125 C1.15104027 308.58071019 -0.64909095 308.57814891 -2.44921875 308.57421875 C-3.27854416 308.57826721 -4.10786957 308.58231567 -4.96232605 308.58648682 C-9.9480727 308.5466011 -14.01416033 307.8711025 -18.75 306.30859375 C-20.45384089 305.95300956 -22.16199904 305.61704408 -23.875 305.30859375 C-27.38595931 304.63076149 -30.45999902 303.73129688 -33.75 302.30859375 C-34.80703125 302.01339844 -35.8640625 301.71820313 -36.953125 301.4140625 C-48.44137665 298.06923203 -59.17158543 292.8178451 -69.75 287.30859375 C-69.75 286.64859375 -69.75 285.98859375 -69.75 285.30859375 C-71.4 284.64859375 -73.05 283.98859375 -74.75 283.30859375 C-74.75 282.64859375 -74.75 281.98859375 -74.75 281.30859375 C-75.43449219 281.25574219 -76.11898437 281.20289063 -76.82421875 281.1484375 C-80.90314642 279.97758376 -83.41160539 277.63559103 -86.5625 274.87109375 C-87.15998047 274.36771484 -87.75746094 273.86433594 -88.37304688 273.34570312 C-89.87749093 272.05102155 -91.31955026 270.68459006 -92.75 269.30859375 C-92.75 268.64859375 -92.75 267.98859375 -92.75 267.30859375 C-93.61625 266.93734375 -93.61625 266.93734375 -94.5 266.55859375 C-97.07939979 265.12559387 -98.81121592 263.52434699 -100.75 261.30859375 C-100.75 260.64859375 -100.75 259.98859375 -100.75 259.30859375 C-101.41 259.30859375 -102.07 259.30859375 -102.75 259.30859375 C-102.75 258.64859375 -102.75 257.98859375 -102.75 257.30859375 C-103.348125 257.04046875 -103.94625 256.77234375 -104.5625 256.49609375 C-108.68208607 254.25974702 -110.39084962 251.27196639 -112.75 247.30859375 C-113.8328125 245.97828125 -113.8328125 245.97828125 -114.9375 244.62109375 C-116.75 242.30859375 -116.75 242.30859375 -116.75 240.30859375 C-117.74 239.97859375 -118.73 239.64859375 -119.75 239.30859375 C-121.39820195 236.70616961 -121.75 235.44610596 -121.75 232.30859375 C-122.41 232.30859375 -123.07 232.30859375 -123.75 232.30859375 C-124.00394531 231.7775 -124.25789063 231.24640625 -124.51953125 230.69921875 C-126.60797265 226.29876265 -126.60797265 226.29876265 -129.4375 222.37109375 C-131.57597439 219.01063399 -131.50770321 215.21876271 -131.75 211.30859375 C-132.41 211.30859375 -133.07 211.30859375 -133.75 211.30859375 C-135.59964114 206.69629713 -137.22651269 202.03651678 -138.75 197.30859375 C-138.99008789 196.56867188 -139.23017578 195.82875 -139.47753906 195.06640625 C-146.78216598 171.45308168 -146.03235307 143.32593609 -140.75 119.30859375 C-140.49863281 118.10460937 -140.24726563 116.900625 -139.98828125 115.66015625 C-139.06769772 111.63686527 -138.15302662 108.09972008 -136.2734375 104.41015625 C-134.6718318 101.14945132 -133.77366571 98.07372864 -132.875 94.55859375 C-131.1770765 88.35919866 -128.8948885 82.90237084 -125.75 77.30859375 C-125.09 77.30859375 -124.43 77.30859375 -123.75 77.30859375 C-123.42 75.32859375 -123.09 73.34859375 -122.75 71.30859375 C-122.09 71.30859375 -121.43 71.30859375 -120.75 71.30859375 C-120.255 69.82359375 -120.255 69.82359375 -119.75 68.30859375 C-118.43733482 66.95490779 -117.10432675 65.62059779 -115.75 64.30859375 C-115.42 63.64859375 -115.09 62.98859375 -114.75 62.30859375 C-114.09 62.30859375 -113.43 62.30859375 -112.75 62.30859375 C-112.46125 61.38046875 -112.1725 60.45234375 -111.875 59.49609375 C-110.75 56.30859375 -110.75 56.30859375 -108.75 53.30859375 C-108.09 53.30859375 -107.43 53.30859375 -106.75 53.30859375 C-106.75 52.64859375 -106.75 51.98859375 -106.75 51.30859375 C-106.09 51.30859375 -105.43 51.30859375 -104.75 51.30859375 C-104.5025 50.73625 -104.255 50.16390625 -104 49.57421875 C-102.55683801 46.95848764 -100.86783778 45.16085919 -98.75 43.05859375 C-97.698125 41.99898437 -97.698125 41.99898437 -96.625 40.91796875 C-94.75 39.30859375 -94.75 39.30859375 -92.75 39.30859375 C-92.75 38.64859375 -92.75 37.98859375 -92.75 37.30859375 C-92.09 37.30859375 -91.43 37.30859375 -90.75 37.30859375 C-90.75 36.64859375 -90.75 35.98859375 -90.75 35.30859375 C-84 31.30859375 -84 31.30859375 -81.75 31.30859375 C-81.68425781 30.71433594 -81.61851563 30.12007812 -81.55078125 29.5078125 C-80.42600649 26.41879695 -78.75863206 25.72785857 -75.9375 24.12109375 C-75.06480469 23.61191406 -74.19210938 23.10273437 -73.29296875 22.578125 C-71.07028809 21.4684918 -69.17511816 20.77778911 -66.75 20.30859375 C-66.75 19.64859375 -66.75 18.98859375 -66.75 18.30859375 C-65.14967863 17.4678996 -63.54458829 16.6362787 -61.9375 15.80859375 C-61.04417969 15.34453125 -60.15085937 14.88046875 -59.23046875 14.40234375 C-56.75 13.30859375 -56.75 13.30859375 -53.75 13.30859375 C-53.75 12.64859375 -53.75 11.98859375 -53.75 11.30859375 C-49.295 10.81359375 -49.295 10.81359375 -44.75 10.30859375 C-44.75 9.64859375 -44.75 8.98859375 -44.75 8.30859375 C-43.62464844 8.03144531 -42.49929687 7.75429688 -41.33984375 7.46875 C-38.2591318 6.69941929 -35.19157543 5.89288492 -32.12890625 5.0546875 C-31.33806641 4.84005859 -30.54722656 4.62542969 -29.73242188 4.40429688 C-28.12178186 3.96621319 -26.51238937 3.52351634 -24.90429688 3.07617188 C-24.11216797 2.86283203 -23.32003906 2.64949219 -22.50390625 2.4296875 C-21.80595947 2.23818115 -21.1080127 2.0466748 -20.38891602 1.84936523 C-13.66490681 0.471469 -6.84734336 0.12724667 0 0 Z M-25.75 18.30859375 C-25.75 18.96859375 -25.75 19.62859375 -25.75 20.30859375 C-27.35875 20.40140625 -27.35875 20.40140625 -29 20.49609375 C-35.00331439 21.23184631 -40.27714167 23.86040678 -45.75 26.30859375 C-47.16559131 26.91527574 -48.58203929 27.51997045 -50 28.12109375 C-50.9075 28.51296875 -51.815 28.90484375 -52.75 29.30859375 C-52.75 29.96859375 -52.75 30.62859375 -52.75 31.30859375 C-53.430625 31.39109375 -54.11125 31.47359375 -54.8125 31.55859375 C-57.84037327 32.33166778 -60.16906285 33.58385071 -62.8359375 35.1875 C-66.05227331 37.07135383 -69.40547148 38.66566746 -72.75 40.30859375 C-72.75 40.96859375 -72.75 41.62859375 -72.75 42.30859375 C-73.3275 42.57671875 -73.905 42.84484375 -74.5 43.12109375 C-76.80550043 44.33788564 -78.77056192 45.61193254 -80.75 47.30859375 C-80.75 47.96859375 -80.75 48.62859375 -80.75 49.30859375 C-81.30171875 49.53546875 -81.8534375 49.76234375 -82.421875 49.99609375 C-85.43692417 51.69585301 -87.56230369 53.85664191 -90 56.30859375 C-90.89203125 57.19546875 -91.7840625 58.08234375 -92.703125 58.99609375 C-94.97093073 61.04348478 -94.97093073 61.04348478 -94.75 63.30859375 C-95.74 63.63859375 -96.73 63.96859375 -97.75 64.30859375 C-98.018125 64.98921875 -98.28625 65.66984375 -98.5625 66.37109375 C-100.00169103 69.93119788 -102.09826766 72.47847312 -104.5078125 75.44140625 C-106.02694801 77.35111391 -106.02694801 77.35111391 -105.75 80.30859375 C-106.41 80.30859375 -107.07 80.30859375 -107.75 80.30859375 C-109.11819481 81.99067307 -109.11819481 81.99067307 -110.375 84.12109375 C-110.82101563 84.82878906 -111.26703125 85.53648438 -111.7265625 86.265625 C-112.97394864 88.37480582 -112.97394864 88.37480582 -112.75 91.30859375 C-113.41 91.30859375 -114.07 91.30859375 -114.75 91.30859375 C-115.1625 92.27796875 -115.575 93.24734375 -116 94.24609375 C-117.23521818 97.13802635 -118.51600068 100.00617015 -119.8125 102.87109375 C-122.10231654 108.03853415 -124.08836129 112.55645189 -123.75 118.30859375 C-124.41 118.30859375 -125.07 118.30859375 -125.75 118.30859375 C-129.33032535 129.04956981 -128.98874354 140.47182633 -129 151.68359375 C-129.00100708 152.38325256 -129.00201416 153.08291138 -129.00305176 153.80377197 C-129.04584167 176.17975301 -129.04584167 176.17975301 -122.6171875 197.37109375 C-121.59766249 199.64895142 -121.16737037 201.85547811 -120.75 204.30859375 C-120.09 204.30859375 -119.43 204.30859375 -118.75 204.30859375 C-118.75 205.62859375 -118.75 206.94859375 -118.75 208.30859375 C-118.09 208.30859375 -117.43 208.30859375 -116.75 208.30859375 C-116.62625 209.00984375 -116.5025 209.71109375 -116.375 210.43359375 C-115.71161655 213.48515762 -114.77788045 216.36200313 -113.75 219.30859375 C-113.09 219.30859375 -112.43 219.30859375 -111.75 219.30859375 C-111.481875 220.19546875 -111.21375 221.08234375 -110.9375 221.99609375 C-109.8249365 225.09956035 -108.64804222 227.6197006 -106.75 230.30859375 C-106.09 230.30859375 -105.43 230.30859375 -104.75 230.30859375 C-104.5025 231.05109375 -104.255 231.79359375 -104 232.55859375 C-102.63861048 235.5536507 -101.0926579 237.03692548 -98.75 239.30859375 C-98.0384375 240.51515625 -98.0384375 240.51515625 -97.3125 241.74609375 C-95.4759597 244.75801984 -93.37016431 246.95716424 -90.75 249.30859375 C-90.09 249.30859375 -89.43 249.30859375 -88.75 249.30859375 C-88.481875 249.94796875 -88.21375 250.58734375 -87.9375 251.24609375 C-86.86332248 253.63991061 -86.86332248 253.63991061 -83.75 254.30859375 C-83.481875 254.8809375 -83.21375 255.45328125 -82.9375 256.04296875 C-81.23108532 259.29862834 -78.55613134 261.28192115 -75.75 263.55859375 C-75.2034375 264.0175 -74.656875 264.47640625 -74.09375 264.94921875 C-71.28932281 267.50711043 -71.28932281 267.50711043 -67.75 268.30859375 C-67.75 268.96859375 -67.75 269.62859375 -67.75 270.30859375 C-65.81629769 271.31591774 -63.87789694 272.31422663 -61.9375 273.30859375 C-60.85855469 273.86546875 -59.77960938 274.42234375 -58.66796875 274.99609375 C-55.82726534 276.51369994 -55.82726534 276.51369994 -52.75 276.30859375 C-52.75 276.96859375 -52.75 277.62859375 -52.75 278.30859375 C-49.93490007 280.58594385 -49.93490007 280.58594385 -46.75 280.30859375 C-46.75 280.96859375 -46.75 281.62859375 -46.75 282.30859375 C-45.90179688 282.5509375 -45.05359375 282.79328125 -44.1796875 283.04296875 C-42.42011719 283.54570313 -42.42011719 283.54570313 -40.625 284.05859375 C-39.99480957 284.23616211 -39.36461914 284.41373047 -38.71533203 284.59667969 C-35.49990987 285.50578538 -32.30927123 286.44917103 -29.125 287.46484375 C-21.4586742 289.86057056 -14.77666379 290.83782433 -6.75 290.30859375 C-6.75 290.96859375 -6.75 291.62859375 -6.75 292.30859375 C4.14 292.30859375 15.03 292.30859375 26.25 292.30859375 C26.25 291.64859375 26.25 290.98859375 26.25 290.30859375 C27.0028125 290.36660156 27.755625 290.42460937 28.53125 290.484375 C38.308129 290.89965505 46.18048074 288.56849798 55.25 285.30859375 C55.25 284.64859375 55.25 283.98859375 55.25 283.30859375 C56.57 283.30859375 57.89 283.30859375 59.25 283.30859375 C59.25 282.64859375 59.25 281.98859375 59.25 281.30859375 C60.466875 281.28796875 61.68375 281.26734375 62.9375 281.24609375 C69.70907637 280.51286574 75.71381453 277.14500348 81.25 273.30859375 C81.93849405 271.9863993 82.60987294 270.65486994 83.25 269.30859375 C84.57989476 268.9617958 85.9141451 268.63167358 87.25 268.30859375 C89.46713822 266.75404856 91.57660131 265.18240025 93.6875 263.49609375 C94.24759766 263.05716797 94.80769531 262.61824219 95.38476562 262.16601562 C96.48804274 261.29961481 97.58759995 260.42845294 98.68310547 259.55224609 C100.15767916 258.38186928 101.65820603 257.24440584 103.16015625 256.109375 C103.84980469 255.51511719 104.53945313 254.92085937 105.25 254.30859375 C105.25 253.64859375 105.25 252.98859375 105.25 252.30859375 C106.24 251.97859375 107.23 251.64859375 108.25 251.30859375 C108.25 250.64859375 108.25 249.98859375 108.25 249.30859375 C108.91 249.30859375 109.57 249.30859375 110.25 249.30859375 C110.25 248.64859375 110.25 247.98859375 110.25 247.30859375 C110.91 247.30859375 111.57 247.30859375 112.25 247.30859375 C113.95993434 245.68634835 115.62347684 244.0144595 117.25 242.30859375 C117.78625 241.85484375 118.3225 241.40109375 118.875 240.93359375 C121.02093079 238.39749373 121.97639627 235.3541679 123.25 232.30859375 C123.91 231.64859375 124.57 230.98859375 125.25 230.30859375 C125.25 229.31859375 125.25 228.32859375 125.25 227.30859375 C125.848125 227.10234375 126.44625 226.89609375 127.0625 226.68359375 C130.12311475 224.75977877 130.9250005 222.62109251 132.25 219.30859375 C132.25 217.98859375 132.25 216.66859375 132.25 215.30859375 C132.91 215.30859375 133.57 215.30859375 134.25 215.30859375 C134.58 212.66859375 134.91 210.02859375 135.25 207.30859375 C135.91 207.30859375 136.57 207.30859375 137.25 207.30859375 C137.25 205.98859375 137.25 204.66859375 137.25 203.30859375 C137.91 203.30859375 138.57 203.30859375 139.25 203.30859375 C139.25 201.98859375 139.25 200.66859375 139.25 199.30859375 C139.91 199.30859375 140.57 199.30859375 141.25 199.30859375 C141.41435547 198.1484375 141.41435547 198.1484375 141.58203125 196.96484375 C143.03497585 187.42029709 143.03497585 187.42029709 144.875 183.12109375 C146.65623349 178.86940577 146.5340143 174.85282259 146.25 170.30859375 C146.91 170.30859375 147.57 170.30859375 148.25 170.30859375 C148.25 159.41859375 148.25 148.52859375 148.25 137.30859375 C147.59 137.30859375 146.93 137.30859375 146.25 137.30859375 C146.25 134.99859375 146.25 132.68859375 146.25 130.30859375 C145.59 130.30859375 144.93 130.30859375 144.25 130.30859375 C144.29640625 129.60476562 144.3428125 128.9009375 144.390625 128.17578125 C144.70495404 119.57663676 142.86973206 112.44506085 140.25 104.30859375 C139.56680423 101.97962199 138.90740342 99.64504105 138.25 97.30859375 C137.59 97.30859375 136.93 97.30859375 136.25 97.30859375 C136.105625 96.68984375 135.96125 96.07109375 135.8125 95.43359375 C135.31847775 93.27601053 135.31847775 93.27601053 134.25 91.30859375 C133.59 91.30859375 132.93 91.30859375 132.25 91.30859375 C132.13785156 90.59316406 132.02570313 89.87773437 131.91015625 89.140625 C131.20543995 86.11743377 130.11712202 83.74536687 128.6875 80.99609375 C128.23246094 80.11308594 127.77742188 79.23007813 127.30859375 78.3203125 C126.95925781 77.65644531 126.60992187 76.99257812 126.25 76.30859375 C125.59 76.30859375 124.93 76.30859375 124.25 76.30859375 C124.023125 75.60347656 123.79625 74.89835937 123.5625 74.171875 C121.95705085 70.66951123 119.85671731 68.32635222 117.25 65.49609375 C116.363125 64.52027344 115.47625 63.54445312 114.5625 62.5390625 C112.54556211 60.07718523 112.54556211 60.07718523 110.25 60.30859375 C109.92 59.31859375 109.59 58.32859375 109.25 57.30859375 C108.26 57.30859375 107.27 57.30859375 106.25 57.30859375 C106.04375 56.60734375 105.8375 55.90609375 105.625 55.18359375 C102.95964743 49.61058383 98.55057018 46.29865898 93.25 43.30859375 C92.363125 42.58671875 91.47625 41.86484375 90.5625 41.12109375 C88.47734216 39.10296653 88.47734216 39.10296653 86.25 39.30859375 C86.25 38.64859375 86.25 37.98859375 86.25 37.30859375 C83.15116855 35.63186238 80.04511545 33.96898035 76.9375 32.30859375 C76.05642578 31.83164063 75.17535156 31.3546875 74.26757812 30.86328125 C72.99624023 30.18652344 72.99624023 30.18652344 71.69921875 29.49609375 C70.91893311 29.07714844 70.13864746 28.65820312 69.3347168 28.2265625 C67.1720443 27.10709694 67.1720443 27.10709694 64.25 27.30859375 C64.25 26.64859375 64.25 25.98859375 64.25 25.30859375 C62.93 25.30859375 61.61 25.30859375 60.25 25.30859375 C60.25 24.64859375 60.25 23.98859375 60.25 23.30859375 C59.32058594 23.04304688 58.39117187 22.7775 57.43359375 22.50390625 C46.25 19.30859375 46.25 19.30859375 42.95019531 18.31079102 C31.68806572 15.26044515 20.04115708 14.94023308 8.4375 14.99609375 C7.7463208 14.99625488 7.0551416 14.99641602 6.34301758 14.99658203 C-4.5767767 15.01423324 -15.09212155 15.82175544 -25.75 18.30859375 Z " fill="#F5F9FC" transform="translate(186.75,41.69140625)"/>
<path d="M0 0 C0 0.66 0 1.32 0 2 C0.61875 2.12375 1.2375 2.2475 1.875 2.375 C4 3 4 3 6 5 C6 6.32 6 7.64 6 9 C2.78571429 12 2.78571429 12 0 12 C0 12.66 0 13.32 0 14 C-2.96187272 16.17204 -5.50685991 17.83561997 -9 19 C-9 19.66 -9 20.32 -9 21 C-13.38461538 24 -13.38461538 24 -16 24 C-16.33 25.32 -16.66 26.64 -17 28 C-17.66 28 -18.32 28 -19 28 C-19 28.66 -19 29.32 -19 30 C-20.65 30.66 -22.3 31.32 -24 32 C-24 32.66 -24 33.32 -24 34 C-24.99 34.495 -24.99 34.495 -26 35 C-26.33 35.99 -26.66 36.98 -27 38 C-25.515 38.495 -25.515 38.495 -24 39 C-23.67 39.66 -23.34 40.32 -23 41 C-20.97536745 41.65213292 -20.97536745 41.65213292 -19 42 C-18.34 40.68 -17.68 39.36 -17 38 C-16.34 38 -15.68 38 -15 38 C-15 37.34 -15 36.68 -15 36 C-12.12228205 34.08152136 -9.11373372 32.49920512 -6 31 C-6 30.34 -6 29.68 -6 29 C-4.68 28.67 -3.36 28.34 -2 28 C-2 27.34 -2 26.68 -2 26 C-0.5390625 24.7109375 -0.5390625 24.7109375 1.375 23.375 C2.00148438 22.92898437 2.62796875 22.48296875 3.2734375 22.0234375 C5 21 5 21 7 21 C7 20.34 7 19.68 7 19 C10.7740032 16.76816562 13.80087637 15.02306007 18.25 14.9375 C21.73642697 16.2845286 23.04821292 17.84711317 25 21 C25 21.99 25 22.98 25 24 C24.195625 24.2475 23.39125 24.495 22.5625 24.75 C21.716875 25.1625 20.87125 25.575 20 26 C19.855625 26.639375 19.71125 27.27875 19.5625 27.9375 C19.2840625 28.9584375 19.2840625 28.9584375 19 30 C17.03533587 31.06775224 15.03144641 32.06553465 13 33 C11.9826127 33.98230498 10.98351631 34.98378365 10 36 C8.83314783 36.92256686 7.64510715 37.81896181 6.4375 38.6875 C5.83808594 39.12449219 5.23867187 39.56148437 4.62109375 40.01171875 C3 41 3 41 1 41 C1 41.66 1 42.32 1 43 C-4.19230769 47.73076923 -4.19230769 47.73076923 -8 49 C-7.43850643 52.25666272 -6.62770014 53.95623323 -4 56 C-1.89667109 56.71447643 -1.89667109 56.71447643 0 57 C0.33 56.01 0.66 55.02 1 54 C1.66 54 2.32 54 3 54 C3 53.34 3 52.68 3 52 C4.65 51.34 6.3 50.68 8 50 C8 49.34 8 48.68 8 48 C10.5614657 45.70351351 11.47967572 45 15 45 C15 44.34 15 43.68 15 43 C20.35714286 38 20.35714286 38 24 38 C24 37.34 24 36.68 24 36 C27.46153846 33 27.46153846 33 30 33 C30 32.34 30 31.68 30 31 C31.32 30.34 32.64 29.68 34 29 C34.33 20.75 34.66 12.5 35 4 C39.95 4 44.9 4 50 4 C50 21.82 50 39.64 50 58 C59.24 58 68.48 58 78 58 C78 62.29 78 66.58 78 71 C63.81 71 49.62 71 35 71 C35 63.08 35 55.16 35 47 C34.01 47 33.02 47 32 47 C31.67 47.99 31.34 48.98 31 50 C29.68352881 50.69937532 28.34977849 51.36729133 27 52 C26.67 52.66 26.34 53.32 26 54 C22.40846211 56.16847571 18.78323204 58.18404862 15 60 C15 60.66 15 61.32 15 62 C13.5390625 63.2890625 13.5390625 63.2890625 11.625 64.625 C10.99851562 65.07101563 10.37203125 65.51703125 9.7265625 65.9765625 C8 67 8 67 6 67 C6 67.66 6 68.32 6 69 C5.01 69 4.02 69 3 69 C3 69.66 3 70.32 3 71 C2.01 71.495 2.01 71.495 1 72 C0.505 73.485 0.505 73.485 0 75 C-2.1875 75.8125 -2.1875 75.8125 -5 76 C-7.8125 73.6875 -7.8125 73.6875 -10 71 C-10 70.34 -10 69.68 -10 69 C-10.66 69 -11.32 69 -12 69 C-12 68.34 -12 67.68 -12 67 C-12.53625 66.9175 -13.0725 66.835 -13.625 66.75 C-17.56976097 65.50428601 -20.67509335 63.03078277 -23.91796875 60.5078125 C-27.17764708 57.97320769 -30.03250153 55.8458601 -33.9375 54.4375 C-34.948125 53.963125 -35.95875 53.48875 -37 53 C-37.9375 50.3125 -37.9375 50.3125 -38 48 C-39.32 48 -40.64 48 -42 48 C-42.391875 49.216875 -42.78375 50.43375 -43.1875 51.6875 C-44.719259 55.77219066 -46.69946923 58.09238956 -50 61 C-50.886875 61.886875 -51.77375 62.77375 -52.6875 63.6875 C-58.38419974 69.38419974 -57.41446212 68.11303512 -68 71 C-79.22 71 -90.44 71 -102 71 C-102 48.56 -102 26.12 -102 3 C-63 3 -63 3 -57 7 C-57 7.66 -57 8.32 -57 9 C-55.68 9.66 -54.36 10.32 -53 11 C-53 11.66 -53 12.32 -53 13 C-52.401875 13.061875 -51.80375 13.12375 -51.1875 13.1875 C-48.09509062 14.3361092 -47.52876662 16.14187109 -46 19 C-45.46375 19.680625 -44.9275 20.36125 -44.375 21.0625 C-42.94978167 23.07076219 -42.42933356 24.59573204 -42 27 C-37.73571504 26.52619056 -35.88509907 23.96102273 -33 21 C-32.34 21 -31.68 21 -31 21 C-31 20.34 -31 19.68 -31 19 C-29.171875 17.37890625 -29.171875 17.37890625 -26.75 15.5625 C-25.96109375 14.96566406 -25.1721875 14.36882812 -24.359375 13.75390625 C-23.58078125 13.17511719 -22.8021875 12.59632813 -22 12 C-21.28328125 11.43152344 -20.5665625 10.86304688 -19.828125 10.27734375 C-18 9 -18 9 -16 9 C-16 8.34 -16 7.68 -16 7 C-14.35 6.34 -12.7 5.68 -11 5 C-11 4.34 -11 3.68 -11 3 C-9.68 2.67 -8.36 2.34 -7 2 C-7 1.34 -7 0.68 -7 0 C-4.3333581 -1.33332095 -2.83319697 -0.67102033 0 0 Z " fill="#F5F9FC" transform="translate(189,158)"/>
<path d="M0 0 C129.03 0 258.06 0 391 0 C391 127.71 391 255.42 391 387 C390.67 387 390.34 387 390 387 C390 259.95 390 132.9 390 2 C262.29 2 134.58 2 3 2 C3 129.05 3 256.1 3 387 C2.01 387 1.02 387 0 387 C0 259.29 0 131.58 0 0 Z " fill="#FAFBFB" transform="translate(0,0)"/>
<path d="M0 0 C4.95 0 9.9 0 15 0 C15 18.15 15 36.3 15 55 C23.91 55 32.82 55 42 55 C42 58.63 42 62.26 42 66 C21.21 66.495 21.21 66.495 0 67 C0 44.89 0 22.78 0 0 Z " fill="#F9FBFD" transform="translate(273,162)"/>
<path d="M0 0 C0.99 0 1.98 0 3 0 C3 127.05 3 254.1 3 385 C2.01 385 1.02 385 0 385 C0 257.95 0 130.9 0 0 Z " fill="#F1F3F4" transform="translate(0,2)"/>
<path d="M0 0 C17 0 17 0 24 4 C25.8125 6 25.8125 6 27 8 C27.35191406 8.54140625 27.70382813 9.0828125 28.06640625 9.640625 C29.38949604 12.98433308 29.2118795 16.21467251 29.125 19.75 C29.11597656 20.44738281 29.10695312 21.14476562 29.09765625 21.86328125 C29.07419888 23.57566958 29.03833104 25.28788004 29 27 C28.34 27 27.68 27 27 27 C26.95875 27.721875 26.9175 28.44375 26.875 29.1875 C25.62604853 33.20198688 23.4094617 34.66017334 20 37 C18.68 37 17.36 37 16 37 C16 37.66 16 38.32 16 39 C10.72 39 5.44 39 0 39 C0 26.13 0 13.26 0 0 Z " fill="#0376CE" transform="translate(103,176)"/>
<path d="M0 0 C5.28 0 10.56 0 16 0 C16 17.82 16 35.64 16 54 C25.57 54 35.14 54 45 54 C45 58.95 45 63.9 45 69 C42.6699002 70.1650499 41.32752923 70.1209358 38.73388672 70.11352539 C37.41274368 70.11341209 37.41274368 70.11341209 36.06491089 70.11329651 C35.11278717 70.10813522 34.16066345 70.10297394 33.1796875 70.09765625 C32.20589142 70.0962413 31.23209534 70.09482635 30.22879028 70.09336853 C27.11082927 70.08775973 23.9929394 70.07520573 20.875 70.0625 C18.76432395 70.05748613 16.65364678 70.05292303 14.54296875 70.04882812 C9.36195479 70.03778745 4.18098248 70.02104073 -1 70 C-1.02312566 61.02079223 -1.04091623 52.04159463 -1.05181217 43.06236362 C-1.05704051 38.89337172 -1.06413726 34.72440013 -1.07543945 30.55541992 C-1.08627008 26.53542314 -1.09227721 22.51544595 -1.09487724 18.49543571 C-1.09673118 16.95837025 -1.10035119 15.42130591 -1.10573006 13.88424873 C-1.11294284 11.73864513 -1.11399084 9.59312345 -1.11352539 7.44750977 C-1.115746 6.22395279 -1.11796661 5.00039581 -1.12025452 3.73976135 C-1 1 -1 1 0 0 Z M0 1 C0 23.11 0 45.22 0 68 C13.86 67.67 27.72 67.34 42 67 C42 63.37 42 59.74 42 56 C33.09 56 24.18 56 15 56 C15 37.85 15 19.7 15 1 C10.05 1 5.1 1 0 1 Z " fill="#76B0E2" transform="translate(273,161)"/>
<path d="M0 0 C0 0.66 0 1.32 0 2 C-0.99 2 -1.98 2 -3 2 C-3 2.66 -3 3.32 -3 4 C-8.11851922 6.06536741 -12.51881745 7.23071122 -18 8 C-20.2315328 8.66026626 -22.41905274 9.41202256 -24.6171875 10.17578125 C-27.04558692 11.01576859 -29.48231899 11.80439552 -31.9375 12.5625 C-32.66839844 12.79066406 -33.39929688 13.01882813 -34.15234375 13.25390625 C-41.71196096 15.2345467 -48.88303578 16.30406219 -56.69921875 16.265625 C-58.01814873 16.26849518 -58.01814873 16.26849518 -59.36372375 16.27142334 C-61.20480641 16.27277296 -63.04589899 16.26916292 -64.88696289 16.26074219 C-67.69113593 16.24998605 -70.49467411 16.26069914 -73.29882812 16.2734375 C-75.09895973 16.27211644 -76.89909095 16.26955516 -78.69921875 16.265625 C-79.52854416 16.26967346 -80.35786957 16.27372192 -81.21232605 16.27789307 C-86.19920479 16.23799829 -90.26224058 15.55870454 -95 14 C-97.64806929 13.47476312 -100.29928878 13.01280915 -102.9609375 12.5625 C-103.63382813 12.376875 -104.30671875 12.19125 -105 12 C-105.33 11.34 -105.66 10.68 -106 10 C-103.8537974 10.14029419 -101.70803782 10.28738164 -99.5625 10.4375 C-98.36753906 10.51871094 -97.17257813 10.59992188 -95.94140625 10.68359375 C-93 11 -93 11 -92 12 C-82.96263979 13.95561068 -74.02388423 14.28392771 -64.8125 14.1875 C-63.60013672 14.18685547 -62.38777344 14.18621094 -61.13867188 14.18554688 C-55.39316259 14.4473328 -55.39316259 14.4473328 -50 13 C-47.66922657 12.69208131 -45.33758104 12.49104726 -42.99609375 12.28125 C-41.00416869 12.20467988 -41.00416869 12.20467988 -40 11 C-38.27650623 10.69514383 -36.54552152 10.43245813 -34.8125 10.1875 C-28.78833781 9.23253746 -23.06783728 7.68867006 -17.2265625 5.953125 C-13.50621017 4.85413472 -9.77137671 3.90513041 -6 3 C-6 2.34 -6 1.68 -6 1 C-3.92446352 0.4465236 -2.15634036 0 0 0 Z " fill="#5CA2DD" transform="translate(263,334)"/>
<path d="M0 0 C6.6 0 13.2 0 20 0 C20.33 0.66 20.66 1.32 21 2 C14.73 1.67 8.46 1.34 2 1 C2 13.87 2 26.74 2 40 C7.28 40 12.56 40 18 40 C18 39.34 18 38.68 18 38 C20.97 37.505 20.97 37.505 24 37 C24 37.66 24 38.32 24 39 C23.01 39 22.02 39 21 39 C21 39.66 21 40.32 21 41 C17.29733134 43.38299958 13.63695078 43.33291164 9.375 43.3125 C8.694375 43.32861328 8.01375 43.34472656 7.3125 43.36132812 C5.3359375 43.36328125 5.3359375 43.36328125 2 43 C-0.029668 39.955498 -0.24856301 39.39723672 -0.22705078 35.98754883 C-0.22689972 35.18694534 -0.22674866 34.38634186 -0.22659302 33.56147766 C-0.21627045 32.70201035 -0.20594788 31.84254303 -0.1953125 30.95703125 C-0.1924826 30.0734343 -0.18965271 29.18983734 -0.18673706 28.27946472 C-0.17554097 25.45700546 -0.15043751 22.63486338 -0.125 19.8125 C-0.11496946 17.89909312 -0.10584374 15.98568127 -0.09765625 14.07226562 C-0.07730495 9.38128987 -0.03815545 4.69100003 0 0 Z " fill="#ACCFED" transform="translate(101,175)"/>
<path d="M0 0 C39 0 39 0 45 4 C45 4.66 45 5.32 45 6 C45.99 6.33 46.98 6.66 48 7 C47.34 7.33 46.68 7.66 46 8 C45.34 7.67 44.68 7.34 44 7 C44 6.34 44 5.68 44 5 C42.68 5 41.36 5 40 5 C40 4.34 40 3.68 40 3 C20.695 2.505 20.695 2.505 1 2 C1 23.78 1 45.56 1 68 C0.67 68 0.34 68 0 68 C0 45.56 0 23.12 0 0 Z " fill="#A6CBEC" transform="translate(87,161)"/>
<path d="M0 0 C0.99 0.495 0.99 0.495 2 1 C2.6132686 3.67608115 3.12331155 6.29515685 3.5625 9 C3.97997258 13.8954663 3.97997258 13.8954663 6 18 C6.12628869 20.88952347 6.18873935 23.7537136 6.203125 26.64453125 C6.20882507 27.52469406 6.21452515 28.40485687 6.22039795 29.31169128 C6.22987214 31.18556511 6.23639148 33.05945578 6.24023438 34.93334961 C6.24983047 37.76251879 6.28078314 40.59092688 6.3125 43.41992188 C6.36754179 53.05767461 6.17024674 61.79409119 3 71 C2.05625473 67.58336859 2.02164767 64.91807341 2.375 61.375 C2.46523438 60.41335937 2.55546875 59.45171875 2.6484375 58.4609375 C3 56 3 56 4 54 C4.27497208 49.73501634 4.23182747 45.46031715 4.25 41.1875 C4.270625 40.01767578 4.29125 38.84785156 4.3125 37.64257812 C4.34462143 30.37108894 3.50931373 23.92961559 1.70361328 16.89038086 C0.8224841 13.27078044 0.50023658 9.9046843 0.3125 6.1875 C0.24675781 5.00542969 0.18101562 3.82335937 0.11328125 2.60546875 C0.07589844 1.74566406 0.03851563 0.88585937 0 0 Z " fill="#70ADE1" transform="translate(345,156)"/>
<path d="M0 0 C0 0.66 0 1.32 0 2 C-0.99 2 -1.98 2 -3 2 C-3 2.66 -3 3.32 -3 4 C-8.11851922 6.06536741 -12.51881745 7.23071122 -18 8 C-21.80466658 9.12572532 -25.54278963 10.46828124 -29.26953125 11.828125 C-36.74260927 14.3563305 -44.17219649 14.69732493 -52 15 C-49.60175053 12.60175053 -48.72664782 12.68563796 -45.4375 12.4375 C-42.41952212 12.41550697 -42.41952212 12.41550697 -40 11 C-38.27650623 10.69514383 -36.54552152 10.43245813 -34.8125 10.1875 C-28.78833781 9.23253746 -23.06783728 7.68867006 -17.2265625 5.953125 C-13.50621017 4.85413472 -9.77137671 3.90513041 -6 3 C-6 2.34 -6 1.68 -6 1 C-3.92446352 0.4465236 -2.15634036 0 0 0 Z " fill="#AECFED" transform="translate(263,334)"/>
<path d="M0 0 C0.33 0 0.66 0 1 0 C1.47316303 9.12153174 0.84326689 15.74958922 -3 24 C-3.67188497 26.33183607 -4.33915417 28.66501142 -5 31 C-5.99477753 33.33556463 -6.99515117 35.66875071 -8 38 C-8.7475952 40.38610697 -9.4714645 42.77478606 -10.15625 45.1796875 C-10.4346875 45.78039062 -10.713125 46.38109375 -11 47 C-12.485 47.495 -12.485 47.495 -14 48 C-14 47.01 -14 46.02 -14 45 C-13.34 45 -12.68 45 -12 45 C-11.67 42.36 -11.34 39.72 -11 37 C-10.34 37 -9.68 37 -9 37 C-9 35.68 -9 34.36 -9 33 C-8.34 33 -7.68 33 -7 33 C-7 31.68 -7 30.36 -7 29 C-6.34 29 -5.68 29 -5 29 C-5.12375 27.6696875 -5.12375 27.6696875 -5.25 26.3125 C-5.28022187 21.34603899 -3.48512031 16.91675466 -1.95703125 12.24609375 C-0.7415841 8.12349545 -0.29006757 4.27849662 0 0 Z " fill="#8BBCE6" transform="translate(333,212)"/>
<path d="M0 0 C1.60728272 4.0182068 0.27930357 7.01994445 -1 11 C-1.34135927 12.33130115 -1.67925956 13.66358148 -2 15 C-2.66 15 -3.32 15 -4 15 C-4 30.18 -4 45.36 -4 61 C-6.14278251 56.71443498 -6.24593798 54.700864 -6.23046875 49.99609375 C-6.23001053 49.31756851 -6.22955231 48.63904327 -6.2290802 47.93995667 C-6.22606425 46.50349175 -6.21819759 45.06702991 -6.20581055 43.63061523 C-6.18776396 41.46911551 -6.18529975 39.30805099 -6.18554688 37.14648438 C-6.13338323 16.40014968 -6.13338323 16.40014968 -3 7 C-2.34 7 -1.68 7 -1 7 C-0.67 4.69 -0.34 2.38 0 0 Z " fill="#5DA3DD" transform="translate(64,153)"/>
<path d="M0 0 C3.15445056 3.15445056 3.36839034 3.46349827 3.625 7.5625 C3.82872181 10.90775258 3.82872181 10.90775258 5 14 C5.08658569 16.55362604 5.11562516 19.0795442 5.09765625 21.6328125 C5.0962413 22.38464813 5.09482635 23.13648376 5.09336853 23.91110229 C5.08776465 26.3157751 5.07521157 28.72035527 5.0625 31.125 C5.0574855 32.75390491 5.0529225 34.38281127 5.04882812 36.01171875 C5.03779397 40.00784827 5.02052679 44.00390842 5 48 C4.67 48 4.34 48 4 48 C4 37.77 4 27.54 4 17 C3.34 17 2.68 17 2 17 C2 14.69 2 12.38 2 10 C1.34 10 0.68 10 0 10 C0 6.7 0 3.4 0 0 Z " fill="#D0E4F5" transform="translate(331,162)"/>
<path d="M0 0 C2.31 0 4.62 0 7 0 C7 0.66 7 1.32 7 2 C17.89 2 28.78 2 40 2 C40 1.34 40 0.68 40 0 C42.64 0 45.28 0 48 0 C42.92546975 2.53726512 39.33336565 3.17315386 33.6328125 3.203125 C32.38611282 3.21167511 32.38611282 3.21167511 31.11422729 3.22039795 C29.35399653 3.22985146 27.59374803 3.23638332 25.83349609 3.24023438 C23.14258887 3.24993658 20.45244652 3.28095456 17.76171875 3.3125 C16.05208787 3.31903043 14.34245153 3.32428075 12.6328125 3.328125 C11.82852814 3.3404718 11.02424377 3.3528186 10.19558716 3.36553955 C6.76692283 3.35189322 4.43929028 3.26301671 1.46044922 1.47949219 C0.97850098 0.99125977 0.49655273 0.50302734 0 0 Z " fill="#C0DBF2" transform="translate(173,332)"/>
<path d="M0 0 C5.1411629 -0.07449853 10.28200729 -0.12876593 15.42358398 -0.16479492 C17.1703845 -0.17982429 18.91714765 -0.20025354 20.66381836 -0.22631836 C23.18352515 -0.2629608 25.70273039 -0.27978492 28.22265625 -0.29296875 C29.3824575 -0.31619453 29.3824575 -0.31619453 30.56568909 -0.33988953 C35.77708919 -0.34148478 39.33601493 0.65855527 44 3 C44 3.66 44 4.32 44 5 C44.99 5.33 45.98 5.66 47 6 C46.34 6.33 45.68 6.66 45 7 C44.34 6.67 43.68 6.34 43 6 C43 5.34 43 4.68 43 4 C41.68 4 40.36 4 39 4 C39 3.34 39 2.68 39 2 C19.695 1.505 19.695 1.505 0 1 C0 0.67 0 0.34 0 0 Z " fill="#DCEBF7" transform="translate(88,162)"/>
<path d="M0 0 C0.33 0 0.66 0 1 0 C0.32418477 6.08233706 -0.73638028 12.01314152 -2 18 C-2.66 18 -3.32 18 -4 18 C-4.03738281 18.59167969 -4.07476562 19.18335938 -4.11328125 19.79296875 C-4.51376901 24.60667451 -5.0385035 28.00841777 -8 32 C-9 30 -9 30 -8.4765625 28.046875 C-8.19554687 27.28890625 -7.91453125 26.5309375 -7.625 25.75 C-6.3597806 22.17387759 -5.48428613 18.77743181 -5 15 C-4.34 15 -3.68 15 -3 15 C-3.0928125 13.7934375 -3.0928125 13.7934375 -3.1875 12.5625 C-2.94860593 8.02351267 -1.57956736 4.23098399 0 0 Z " fill="#93C0E8" transform="translate(346,227)"/>
<path d="M0 0 C2 2 2 2 2 6 C2.66 6 3.32 6 4 6 C5.26361972 11.98685848 6.32418477 17.91766294 7 24 C7.66 24 8.32 24 9 24 C9 25.65 9 27.3 9 29 C8.67 27.68 8.34 26.36 8 25 C7.34 25 6.68 25 6 25 C4.66666667 20.33333333 3.33333333 15.66666667 2 11 C1.62617187 9.77410156 1.25234375 8.54820312 0.8671875 7.28515625 C0 4 0 4 0 0 Z " fill="#64A6DE" transform="translate(60,221)"/>
<path d="M0 0 C0.66 0 1.32 0 2 0 C3.38227951 8.32051741 4.4237919 16.58432901 5 25 C0.6440005 20.6440005 0.19926426 12.0458966 -0.19140625 6.07421875 C-0.1881754 4.04847675 -0.10464001 2.02304018 0 0 Z " fill="#C4DDF2" transform="translate(43,208)"/>
<path d="M0 0 C6.47509827 0.2755361 11.75520127 1.40068553 17.67578125 4.0625 C20.10585141 5.04269637 22.42179898 5.56193399 25 6 C25 6.66 25 7.32 25 8 C26.32 8.33 27.64 8.66 29 9 C27.35 9 25.7 9 24 9 C24 8.34 24 7.68 24 7 C22.88625 6.87625 21.7725 6.7525 20.625 6.625 C15.69539009 6.01542458 10.85755745 5.02526315 6 4 C6 3.34 6 2.68 6 2 C3.03 1.505 3.03 1.505 0 1 C0 0.67 0 0.34 0 0 Z " fill="#64A6DE" transform="translate(222,59)"/>
<path d="M0 0 C8.78843098 -0.62774507 16.60314556 1.69215289 25 4 C25 4.33 25 4.66 25 5 C16.58432901 4.4237919 8.32051741 3.38227951 0 2 C0 1.34 0 0.68 0 0 Z " fill="#C4DDF2" transform="translate(209,42)"/>
<path d="M0 0 C0.99 0.495 0.99 0.495 2 1 C2.65023047 3.86638294 3.17516952 6.66384749 3.625 9.5625 C3.7590625 10.34947266 3.893125 11.13644531 4.03125 11.94726562 C4.85226114 17.02831926 5.12966021 21.85484712 5 27 C4.67 27 4.34 27 4 27 C1.60438853 17.92982326 0.40685889 9.35775436 0 0 Z " fill="#ABCEED" transform="translate(345,156)"/>
<path d="M0 0 C0 0.66 0 1.32 0 2 C-1.7491497 2.33776684 -3.49936145 2.67003671 -5.25 3 C-6.71179688 3.2784375 -6.71179688 3.2784375 -8.203125 3.5625 C-11 4 -11 4 -15 4 C-15 4.66 -15 5.32 -15 6 C-18.3 6.33 -21.6 6.66 -25 7 C-21.90576832 3.90576832 -18.4476188 3.06293995 -14.125 2.875 C-13.42375 2.91625 -12.7225 2.9575 -12 3 C-12 2.34 -12 1.68 -12 1 C-7.915021 0.45533613 -4.1274515 0 0 0 Z " fill="#539CDB" transform="translate(173,59)"/>
<path d="M0 0 C2.1462026 0.14029419 4.29196218 0.28738164 6.4375 0.4375 C7.63246094 0.51871094 8.82742187 0.59992188 10.05859375 0.68359375 C13 1 13 1 14 2 C16.18019479 2.39666227 18.3696463 2.74315237 20.5625 3.0625 C21.76003906 3.23910156 22.95757812 3.41570312 24.19140625 3.59765625 C25.11824219 3.73042969 26.04507813 3.86320312 27 4 C27 4.33 27 4.66 27 5 C6.91807432 4.05320946 6.91807432 4.05320946 1 2 C0.67 1.34 0.34 0.68 0 0 Z " fill="#A6CBEB" transform="translate(157,344)"/>
<path d="M0 0 C3 3 3 3 3.29296875 6.35546875 C3.25816406 7.62003906 3.22335937 8.88460937 3.1875 10.1875 C3.16042969 11.45980469 3.13335937 12.73210937 3.10546875 14.04296875 C3.07066406 15.01878906 3.03585937 15.99460938 3 17 C2.67 17 2.34 17 2 17 C2 14.69 2 12.38 2 10 C1.34 10 0.68 10 0 10 C0 6.7 0 3.4 0 0 Z " fill="#91C0E8" transform="translate(331,162)"/>
<path d="M0 0 C0 0.66 0 1.32 0 2 C-0.99 2 -1.98 2 -3 2 C-3 2.66 -3 3.32 -3 4 C-9.27 4 -15.54 4 -22 4 C-22 3.67 -22 3.34 -22 3 C-16.72 3 -11.44 3 -6 3 C-6 2.34 -6 1.68 -6 1 C-3.92446352 0.4465236 -2.15634036 0 0 0 Z " fill="#7BB3E3" transform="translate(125,212)"/>
<path d="M0 0 C1.24546405 2.49092811 0.7767578 3.41080733 0 6 C-0.66 6 -1.32 6 -2 6 C-2.2475 6.515625 -2.495 7.03125 -2.75 7.5625 C-4.39581616 10.77184151 -6.1976096 13.87585664 -8 17 C-8.33 16.34 -8.66 15.68 -9 15 C-7.7796615 12.56816603 -6.51503995 10.26895497 -5.125 7.9375 C-4.74730469 7.28716797 -4.36960937 6.63683594 -3.98046875 5.96679688 C-1.18268327 1.18268327 -1.18268327 1.18268327 0 0 Z " fill="#7AB3E3" transform="translate(332,267)"/>
<path d="M0 0 C-2.07914664 0.70005949 -4.16351586 1.38462244 -6.25 2.0625 C-7.41015625 2.44535156 -8.5703125 2.82820313 -9.765625 3.22265625 C-12.80077085 3.95211763 -14.15703213 4.11889082 -17 3 C-15.02 2.67 -13.04 2.34 -11 2 C-11 1.34 -11 0.68 -11 0 C-6.97959015 -0.69584017 -3.91736581 -1.1700097 0 0 Z " fill="#68A8DF" transform="translate(239,328)"/>
<path d="M0 0 C0 0.99 0 1.98 0 3 C-1.65 3.33 -3.3 3.66 -5 4 C-5 4.66 -5 5.32 -5 6 C-5.66 6 -6.32 6 -7 6 C-7.33 6.99 -7.66 7.98 -8 9 C-9.32 8.67 -10.64 8.34 -12 8 C-11.01 7.67 -10.02 7.34 -9 7 C-9 6.34 -9 5.68 -9 5 C-8.01 5 -7.02 5 -6 5 C-6 4.34 -6 3.68 -6 3 C-2.53846154 0 -2.53846154 0 0 0 Z " fill="#66A7DF" transform="translate(201,222)"/>
<path d="M0 0 C5.19823509 2.39918542 9.85480451 5.10747369 13 10 C10.73286083 8.90841447 8.58830248 7.74896492 6.4375 6.4375 C3.99345222 4.88141236 3.99345222 4.88141236 1 4 C0.3125 1.9375 0.3125 1.9375 0 0 Z " fill="#8ABBE6" transform="translate(151,207)"/>
<path d="M0 0 C1.43836751 0.11458693 2.87570966 0.24209116 4.3125 0.375 C5.51326172 0.47941406 5.51326172 0.47941406 6.73828125 0.5859375 C9 1 9 1 12 3 C12 3.66 12 4.32 12 5 C12.99 5.33 13.98 5.66 15 6 C14.01 6.495 14.01 6.495 13 7 C12.34 6.67 11.68 6.34 11 6 C11 5.34 11 4.68 11 4 C9.68 4 8.36 4 7 4 C7 3.34 7 2.68 7 2 C4.69 1.67 2.38 1.34 0 1 C0 0.67 0 0.34 0 0 Z " fill="#93C0E8" transform="translate(120,162)"/>
<path d="M0 0 C0.33 0.66 0.66 1.32 1 2 C-0.14453125 4.56640625 -0.14453125 4.56640625 -1.8125 7.5625 C-2.35519531 8.55378906 -2.89789063 9.54507813 -3.45703125 10.56640625 C-5 13 -5 13 -7 14 C-6.67 12.35 -6.34 10.7 -6 9 C-5.34 9 -4.68 9 -4 9 C-3.67 7.02 -3.34 5.04 -3 3 C-2.34 3 -1.68 3 -1 3 C-0.67 2.01 -0.34 1.02 0 0 Z " fill="#89BBE6" transform="translate(67,110)"/>
<path d="M0 0 C0 0.66 0 1.32 0 2 C-0.99 2 -1.98 2 -3 2 C-3 2.66 -3 3.32 -3 4 C-7.95 5.485 -7.95 5.485 -13 7 C-12 5 -12 5 -8.9375 3.875 C-7.4834375 3.441875 -7.4834375 3.441875 -6 3 C-6 2.34 -6 1.68 -6 1 C-3.92446352 0.4465236 -2.15634036 0 0 0 Z " fill="#70AEE1" transform="translate(263,334)"/>
<path d="M0 0 C0.66 0 1.32 0 2 0 C2 0.99 2 1.98 2 3 C-1.3 4.32 -4.6 5.64 -8 7 C-8 6.34 -8 5.68 -8 5 C-6.20963542 3.99088542 -4.41927083 2.98177083 -2.62890625 1.97265625 C-1.02121854 1.1027487 -1.02121854 1.1027487 0 0 Z " fill="#95C2E8" transform="translate(278,306)"/>
<path d="M0 0 C0.93423645 3.01031744 1.04449911 3.86650268 0 7 C-0.66 7 -1.32 7 -2 7 C-2 8.32 -2 9.64 -2 11 C-2.66 11 -3.32 11 -4 11 C-2.95902388 7.13351728 -1.96301592 3.50538557 0 0 Z " fill="#ACCFED" transform="translate(59,124)"/>
<path d="M0 0 C0.598125 0.309375 1.19625 0.61875 1.8125 0.9375 C4.08956772 2.10209704 4.08956772 2.10209704 7 3 C7 3.66 7 4.32 7 5 C7.66 5 8.32 5 9 5 C8.67 5.66 8.34 6.32 8 7 C7.01 6.67 6.02 6.34 5 6 C5 5.34 5 4.68 5 4 C3.35 3.67 1.7 3.34 0 3 C0 2.01 0 1.02 0 0 Z " fill="#75B0E2" transform="translate(170,222)"/>
<path d="M0 0 C2.4375 0.8125 2.4375 0.8125 5 2 C5.33 2.99 5.66 3.98 6 5 C6.66 5.33 7.32 5.66 8 6 C8 6.66 8 7.32 8 8 C7.01 8 6.02 8 5 8 C4.67 6.68 4.34 5.36 4 4 C3.34 4 2.68 4 2 4 C1.34 2.68 0.68 1.36 0 0 Z " fill="#6AA9DF" transform="translate(298,79)"/>
<path d="M0 0 C0.66 0.33 1.32 0.66 2 1 C1.525625 1.7425 1.05125 2.485 0.5625 3.25 C-0.77869327 5.61050015 -1.512312 7.36648477 -2 10 C-2.99 10 -3.98 10 -5 10 C-3.66511872 6.40608886 -2.03977277 3.24509304 0 0 Z " fill="#8EBEE7" transform="translate(312,269)"/>
<path d="M0 0 C0.66 0.33 1.32 0.66 2 1 C1.01 2.485 1.01 2.485 0 4 C-0.66 4 -1.32 4 -2 4 C-2 4.66 -2 5.32 -2 6 C-3.32 5.67 -4.64 5.34 -6 5 C-5.01 4.67 -4.02 4.34 -3 4 C-3 3.34 -3 2.68 -3 2 C-2.01 1.34 -1.02 0.68 0 0 Z " fill="#A4CBEC" transform="translate(195,208)"/>
<path d="M0 0 C0.33 1.32 0.66 2.64 1 4 C0.34 4 -0.32 4 -1 4 C-1 4.66 -1 5.32 -1 6 C-2.32 6.33 -3.64 6.66 -5 7 C-5 6.34 -5 5.68 -5 5 C-4.34 5 -3.68 5 -3 5 C-2.5359375 4.0409375 -2.5359375 4.0409375 -2.0625 3.0625 C-1 1 -1 1 0 0 Z " fill="#ACCFED" transform="translate(302,284)"/>
<path d="M0 0 C1 2 1 2 0.25 4.5 C-1 7 -1 7 -4 9 C-2.94124926 5.59687262 -1.99097846 2.98646769 0 0 Z " fill="#4194D8" transform="translate(71,137)"/>
</svg>
