<?xml version="1.0" encoding="UTF-8"?>
<svg version="1.1" xmlns="http://www.w3.org/2000/svg" width="596" height="234">
<path d="M0 0 C192.39 0 384.78 0 583 0 C583 72.93 583 145.86 583 221 C390.61 221 198.22 221 0 221 C0 148.07 0 75.14 0 0 Z " fill="#E50113" transform="translate(13,0)"/>
<path d="M0 0 C8.25148418 4.96951163 13.86693838 11.04551233 16.77734375 20.31640625 C18.49065855 29.17669136 17.55618568 38.55304548 13.125 46.4375 C7.91257278 54.1349216 1.47587462 59.26731022 -7.5078125 61.8046875 C-17.64749945 63.74632968 -26.16337561 63.40413456 -35.21875 58.20703125 C-41.81586333 53.70628977 -45.7684074 48.79525936 -48.8125 41.4375 C-49.34810547 40.28894531 -49.34810547 40.28894531 -49.89453125 39.1171875 C-52.17665024 32.45534227 -51.90505603 24.06198816 -49.1875 17.5625 C-48.44179975 16.16203856 -47.64941884 14.7854347 -46.8125 13.4375 C-46.38839844 12.74011719 -45.96429688 12.04273437 -45.52734375 11.32421875 C-35.73177391 -3.16449319 -15.6437112 -7.44465952 0 0 Z " fill="#FEF9F9" transform="translate(497.8125,91.5625)"/>
<path d="M0 0 C7.41646839 4.83233306 14.5944244 10.88101863 16.8203125 19.76953125 C18.44667617 30.14512913 17.87550982 39.71258467 12.1796875 48.5859375 C6.38757226 56.37657184 -1.20102264 60.82496777 -10.7578125 62.4609375 C-21.51624879 63.40443009 -30.3305259 62.14577454 -38.83984375 55.25 C-46.81605062 47.8098722 -50.64753014 39.97713035 -51.2578125 29.0859375 C-50.94513617 20.23094379 -47.50180784 12.85274054 -41.4453125 6.4609375 C-30.8354962 -3.31638904 -13.29307621 -6.48554929 0 0 Z " fill="#FEFAFA" transform="translate(363.7578125,91.5390625)"/>
<path d="M0 0 C1.36125 0.8353125 1.36125 0.8353125 2.75 1.6875 C7.52338196 6.5934759 10.90385126 11.80877707 11.57714844 18.68286133 C11.65882263 19.49177322 11.74049683 20.30068512 11.824646 21.1341095 C11.88251282 21.74985336 11.94037964 22.36559723 12 23 C10.79875488 23.50450684 9.59750977 24.00901367 8.35986328 24.52880859 C3.91116321 26.39871885 -0.53481006 28.27503652 -4.97998047 30.15332031 C-6.90567219 30.96594988 -8.83210277 31.77683085 -10.75927734 32.5859375 C-13.52636868 33.74803041 -16.29075752 34.91634904 -19.0546875 36.0859375 C-19.9193161 36.44746918 -20.7839447 36.80900085 -21.67477417 37.18148804 C-22.87579269 37.69179062 -22.87579269 37.69179062 -24.10107422 38.21240234 C-24.8072287 38.50996429 -25.51338318 38.80752625 -26.24093628 39.11410522 C-28.18891276 39.97992266 -28.18891276 39.97992266 -30 42 C-24.23938546 46.02176237 -18.80945865 45.75839942 -12 45 C-9.49293196 44.18630248 -7.31041709 43.23165306 -5 41.97265625 C-2.55972839 40.78588353 -0.72239574 40.16676237 2 40 C4.45703125 41.43359375 4.45703125 41.43359375 6.8125 43.4375 C7.60269531 44.09621094 8.39289063 44.75492188 9.20703125 45.43359375 C9.79871094 45.95050781 10.39039063 46.46742188 11 47 C8.48649103 52.84421791 3.76309554 54.86008475 -1.92578125 57.20703125 C-12.99913723 61.03335572 -25.12443258 62.0398971 -36 57 C-44.33058318 52.07331102 -50.45729223 45.45784555 -53 36 C-53.41721932 32.81967393 -53.46578838 29.70430188 -53.4375 26.5 C-53.45748047 25.69691406 -53.47746094 24.89382812 -53.49804688 24.06640625 C-53.49134054 15.79079502 -50.19972811 9.64829176 -44.69140625 3.6015625 C-33.12058418 -7.35464315 -13.08604981 -8.88814868 0 0 Z " fill="#FEF9FA" transform="translate(224,94)"/>
<path d="M0 0 C2.26744959 1.46311781 4.13933013 2.97882614 6.0625 4.8671875 C7.01125 5.7746875 7.96 6.6821875 8.9375 7.6171875 C13.66397938 14.84592067 14.50661189 22.56733248 14.35546875 31.03125 C14.35122391 31.94933441 14.34697906 32.86741882 14.34260559 33.81332397 C14.32599497 36.70659428 14.28837775 39.5991326 14.25 42.4921875 C14.23493032 44.47004193 14.22124595 46.44790742 14.20898438 48.42578125 C14.17871844 53.24008287 14.11996582 58.05282913 14.0625 62.8671875 C8.1225 62.8671875 2.1825 62.8671875 -3.9375 62.8671875 C-3.95167969 59.96550781 -3.96585937 57.06382812 -3.98046875 54.07421875 C-4.01110048 51.25761347 -4.05018628 48.44124326 -4.09008789 45.62475586 C-4.11325551 43.67041361 -4.12766071 41.71594673 -4.13305664 39.76147461 C-4.14235532 36.94826707 -4.18336475 34.13701638 -4.23046875 31.32421875 C-4.2265361 30.45320023 -4.22260345 29.5821817 -4.21855164 28.68476868 C-4.32494329 24.24089199 -4.48414176 22.43136868 -7.35644531 18.85693359 C-12.83750257 14.63156312 -17.10311103 14.15712111 -23.9375 14.8671875 C-28.23230825 16.60338658 -29.97602493 18.72341356 -31.9375 22.8671875 C-32.399124 25.94435091 -32.42583196 28.99764252 -32.44921875 32.10546875 C-32.46716995 32.98623581 -32.48512115 33.86700287 -32.50361633 34.77445984 C-32.5576191 37.5761543 -32.59158266 40.37767937 -32.625 43.1796875 C-32.65818195 45.08400789 -32.69267243 46.98830596 -32.72851562 48.89257812 C-32.81333978 53.55065884 -32.88019874 58.2086902 -32.9375 62.8671875 C-38.5475 62.8671875 -44.1575 62.8671875 -49.9375 62.8671875 C-49.9375 42.0771875 -49.9375 21.2871875 -49.9375 -0.1328125 C-44.3275 -0.1328125 -38.7175 -0.1328125 -32.9375 -0.1328125 C-32.6075 2.1771875 -32.2775 4.4871875 -31.9375 6.8671875 C-31.26654297 6.25230469 -31.26654297 6.25230469 -30.58203125 5.625 C-29.97746094 5.08617188 -29.37289063 4.54734375 -28.75 3.9921875 C-28.15832031 3.45851563 -27.56664062 2.92484375 -26.95703125 2.375 C-19.96707816 -2.84380444 -8.04796599 -3.10360391 0 0 Z " fill="#FEFAFA" transform="translate(292.9375,90.1328125)"/>
<path d="M0 0 C6.6 0 13.2 0 20 0 C25.37461416 13.54850652 30.29100986 27.20688278 35 41 C39.14519801 30.56770836 43.09883625 20.10153061 46.68969727 9.46386719 C46.96354248 8.66239258 47.2373877 7.86091797 47.51953125 7.03515625 C47.75776611 6.3275415 47.99600098 5.61992676 48.24145508 4.89086914 C49 3 49 3 51 0 C52.97119141 -0.34057617 52.97119141 -0.34057617 55.3515625 -0.29296875 C56.62773437 -0.2784668 56.62773437 -0.2784668 57.9296875 -0.26367188 C58.81914062 -0.23853516 59.70859375 -0.21339844 60.625 -0.1875 C61.97078125 -0.16719727 61.97078125 -0.16719727 63.34375 -0.14648438 C65.56309789 -0.11106925 67.78125188 -0.06168461 70 0 C69.31109358 5.0249645 67.25617182 9.3902302 65.25 14 C62.92145318 19.38252553 60.68226887 24.77928306 58.59765625 30.26171875 C55.95833931 37.18370091 53.09509584 43.99964191 50.1875 50.8125 C49.68541016 51.99392578 49.18332031 53.17535156 48.66601562 54.39257812 C47.44598355 57.26255833 46.22327821 60.1314019 45 63 C38.4 63 31.8 63 25 63 C24.29875 61.19917969 23.5975 59.39835937 22.875 57.54296875 C17.43585996 43.61322913 11.88207452 29.74990459 6 16 C5.01578067 13.68956153 4.03767085 11.37679435 3.0625 9.0625 C2.68222656 8.16660156 2.30195313 7.27070312 1.91015625 6.34765625 C1 4 1 4 0 0 Z " fill="#FEFAFB" transform="translate(379,90)"/>
<path d="M0 0 C5.61 0 11.22 0 17 0 C17 21.78 17 43.56 17 66 C30.2 66 43.4 66 57 66 C57 71.28 57 76.56 57 82 C38.19 82 19.38 82 0 82 C0 54.94 0 27.88 0 0 Z " fill="#FEFCFD" transform="translate(112,71)"/>
<path d="M0 0 C4.57207568 2.56677933 7.78525875 5.6789796 9.9375 10.5 C11.02797044 16.33676265 10.82014511 21.72662875 7.9375 27 C4.58703414 31.53020735 0.40101528 33.93466073 -5.14453125 34.83984375 C-9.87109238 35.06577879 -13.21242031 34.17831631 -17.0625 31.5 C-21.74238448 26.23923993 -24.45081625 21.95852784 -24.34375 14.69140625 C-23.68447898 9.55458622 -21.26505171 5.64242413 -17.5625 2.125 C-16.325 1.320625 -16.325 1.320625 -15.0625 0.5 C-14.134375 -0.11875 -14.134375 -0.11875 -13.1875 -0.75 C-8.55682205 -2.38435692 -4.43184974 -1.91510142 0 0 Z " fill="#E50618" transform="translate(354.0625,104.5)"/>
<path d="M0 0 C4.03558473 2.85443798 6.628719 6.29208031 8.5625 10.8125 C9.43004296 16.74407277 8.80742827 21.89349824 5.83984375 27.12109375 C3.13617665 30.70117893 -0.27239528 32.42413176 -4.4375 33.8125 C-10.05349916 34.18076224 -13.61415989 34.02806007 -18.4375 30.8125 C-22.83708102 26.3129285 -25.23340047 22.60875123 -25.57421875 16.26953125 C-25.40064983 9.64650671 -23.79671212 6.03806158 -19.2265625 1.2734375 C-14.14837359 -2.87338052 -5.83298236 -2.01503027 0 0 Z " fill="#E50517" transform="translate(489.4375,105.1875)"/>
<path d="M0 0 C2.94171867 1.52586708 5.14897098 3.23355299 7 6 C7 6.99 7 7.98 7 9 C6.05640625 9.37511719 5.1128125 9.75023438 4.140625 10.13671875 C-3.13644274 13.03555068 -10.39242145 15.97303037 -17.609375 19.01953125 C-19.38050866 19.74592757 -21.18393022 20.39464341 -23 21 C-23.63594395 14.89493812 -22.97731125 10.96564274 -19.58203125 5.82421875 C-13.86735534 -0.76529644 -8.40881337 -1.39287093 0 0 Z " fill="#E5091A" transform="translate(210,103)"/>
<path d="M0 0 C0 1.32 0 2.64 0 4 C-3.75 5.125 -3.75 5.125 -6 4 C-6 2.68 -6 1.36 -6 0 C-3.50907189 -1.24546405 -2.58919267 -0.7767578 0 0 Z " fill="#E91A1A" transform="translate(7,228)"/>
</svg>
