<?xml version="1.0" encoding="UTF-8"?>
<svg id="Layer_1" data-name="Layer 1" xmlns="http://www.w3.org/2000/svg" xmlns:xlink="http://www.w3.org/1999/xlink" viewBox="0 0 1296 432">
  <defs>
    <style>
      .cls-1 {
        fill: none;
      }

      .cls-2 {
        mask: url(#mask);
      }

      .cls-3 {
        fill: url(#linear-gradient-8);
      }

      .cls-4 {
        fill: url(#linear-gradient-7);
      }

      .cls-5 {
        fill: url(#linear-gradient-5);
      }

      .cls-6 {
        fill: url(#linear-gradient-6);
      }

      .cls-7 {
        fill: url(#linear-gradient-9);
      }

      .cls-8 {
        fill: url(#linear-gradient-4);
      }

      .cls-9 {
        fill: url(#linear-gradient-3);
      }

      .cls-10 {
        fill: url(#linear-gradient-2);
      }

      .cls-11 {
        fill: url(#linear-gradient);
      }

      .cls-12 {
        opacity: .32;
      }

      .cls-12, .cls-13 {
        fill: #fff;
      }

      .cls-14 {
        mask: url(#mask-2);
      }

      .cls-15 {
        mask: url(#mask-1);
      }

      .cls-16 {
        clip-path: url(#clippath-1);
      }

      .cls-17 {
        clip-path: url(#clippath-2);
      }

      .cls-18 {
        fill: #301e6c;
      }

      .cls-19 {
        fill: #00478f;
      }

      .cls-20 {
        fill: url(#linear-gradient-10);
      }

      .cls-21 {
        fill: #d93c78;
      }

      .cls-22 {
        clip-path: url(#clippath);
      }

      .cls-23 {
        font-family: Rangkings-Regular, Rangkings;
        font-size: 160.2px;
        letter-spacing: 0em;
      }

      .cls-24 {
        font-family: AmericanTypewriter-Condensed, 'American Typewriter';
        font-size: 41.05px;
        letter-spacing: .19em;
      }
    </style>
    <linearGradient id="linear-gradient" x1="117.46" y1="148.22" x2="445.16" y2="148.22" gradientUnits="userSpaceOnUse">
      <stop offset="0" stop-color="red"/>
      <stop offset="1" stop-color="#ffce4b"/>
    </linearGradient>
    <clipPath id="clippath">
      <path class="cls-11" d="M301.08,78.36l31.1,87.04,88.98,1.13c25.46.18,32.87,19.32,11.43,36.27l-35.59,27.47c-30.08,1.25-67.94,4.33-111.62,6.65-110.63,5.88-167.92-65.11-167.92-65.11,4.1-3.23,10.38-5.22,18.5-5.28l88.98-1.13,31.1-87.04c9.49-25.59,35.54-25.59,45.03,0"/>
    </clipPath>
    <linearGradient id="linear-gradient-2" y1="147.78" x2="454.03" y2="147.78" xlink:href="#linear-gradient"/>
    <linearGradient id="linear-gradient-3" x1="603.75" y1="1297.92" x2="667.32" y2="1408.03" gradientTransform="translate(-386.82 -1268.5)" gradientUnits="userSpaceOnUse">
      <stop offset="0" stop-color="#fff"/>
      <stop offset="1" stop-color="#000"/>
    </linearGradient>
    <mask id="mask" x="228.34" y="63.96" width="78.35" height="106.19" maskUnits="userSpaceOnUse">
      <rect class="cls-9" x="228.34" y="63.96" width="78.35" height="106.19"/>
    </mask>
    <clipPath id="clippath-1">
      <path class="cls-1" d="M444.3,187.81c-1.59,4.83-5.39,10.01-11.7,14.99l-73.17,56.47,26.42,84.98c7.7,24.27-8.22,37.23-30.96,22.08l-76.32-52.14-76.32,52.14c-22.75,15.14-38.66,2.19-30.96-22.08l26.42-84.98-73.17-56.47c-14.59-11.54-15.81-24.1-7.07-30.99,0,0,148.52,73.17,326.83,16"/>
    </clipPath>
    <linearGradient id="linear-gradient-4" x1="382.7" y1="389.38" x2="144.2" y2="136.19" gradientUnits="userSpaceOnUse">
      <stop offset="0" stop-color="#0077bf"/>
      <stop offset=".45" stop-color="#27cabf"/>
      <stop offset="1" stop-color="#c2ff42"/>
    </linearGradient>
    <linearGradient id="linear-gradient-5" x1="718.03" y1="1357.71" x2="719.57" y2="1507.82" gradientTransform="translate(-438.01 -1242.27)" xlink:href="#linear-gradient-3"/>
    <mask id="mask-1" x="117.46" y="171.81" width="326.83" height="55.14" maskUnits="userSpaceOnUse">
      <rect class="cls-5" x="117.46" y="171.81" width="326.83" height="55.14"/>
    </mask>
    <linearGradient id="linear-gradient-6" x1="111.97" y1="272.32" x2="387.81" y2="272.32" gradientUnits="userSpaceOnUse">
      <stop offset=".42" stop-color="#ffd52b"/>
      <stop offset=".82" stop-color="#ff5621"/>
      <stop offset="1" stop-color="#ff1c1c"/>
    </linearGradient>
    <clipPath id="clippath-2">
      <path class="cls-6" d="M368.61,288.8l17.24,55.45c7.7,24.27-8.22,37.23-30.96,22.08l-76.32-52.14-76.32,52.14c-22.75,15.14-38.66,2.19-30.96-22.08l26.42-84.98-73.17-56.47c-14.59-11.54-15.81-24.1-7.07-30.99.11.09,99.56,80.6,251.14,116.99"/>
    </clipPath>
    <linearGradient id="linear-gradient-7" x1="346.1" y1="441.13" x2="123.02" y2="54.76" gradientUnits="userSpaceOnUse">
      <stop offset="0" stop-color="#ff1c1c"/>
      <stop offset=".44" stop-color="#ffd52b"/>
    </linearGradient>
    <linearGradient id="linear-gradient-8" x1="700.7" y1="1387.57" x2="669.4" y2="1504.37" gradientTransform="translate(-438.01 -1201.1)" xlink:href="#linear-gradient-3"/>
    <mask id="mask-2" x="117.46" y="171.81" width="259.63" height="144.3" maskUnits="userSpaceOnUse">
      <rect class="cls-3" x="117.46" y="171.81" width="259.63" height="144.3"/>
    </mask>
    <linearGradient id="linear-gradient-9" x1="847.18" y1="200.93" x2="1182.95" y2="200.93" gradientUnits="userSpaceOnUse">
      <stop offset=".12" stop-color="red"/>
      <stop offset=".18" stop-color="#ff0602"/>
      <stop offset="1" stop-color="#ffce4b"/>
    </linearGradient>
    <linearGradient id="linear-gradient-10" x1="614.06" y1="156.43" x2="645.87" y2="156.43" gradientUnits="userSpaceOnUse">
      <stop offset="1" stop-color="red"/>
      <stop offset="1" stop-color="#ffce4b"/>
    </linearGradient>
  </defs>
  <text class="cls-24" transform="translate(684.82 334.42)"><tspan x="0" y="0">Solutions LLP</tspan></text>
  <g>
    <g>
      <g>
        <path class="cls-11" d="M301.08,78.36l31.1,87.04,88.98,1.13c25.46.18,32.87,19.32,11.43,36.27l-35.59,27.47c-30.08,1.25-67.94,4.33-111.62,6.65-110.63,5.88-167.92-65.11-167.92-65.11,4.1-3.23,10.38-5.22,18.5-5.28l88.98-1.13,31.1-87.04c9.49-25.59,35.54-25.59,45.03,0"/>
        <g class="cls-22">
          <rect class="cls-10" x="117.46" y="52.77" width="336.56" height="190.03"/>
        </g>
      </g>
      <g class="cls-2">
        <path class="cls-12" d="M296.59,80.02c-7.94-21.42-28.11-21.42-36.03-.05l-32.22,90.17,33.09-62.14c12.67-23.8,22.48-24.37,45.26.3l-10.1-28.28Z"/>
      </g>
      <g class="cls-16">
        <rect class="cls-8" x="108.72" y="171.81" width="335.57" height="209.67"/>
      </g>
      <g class="cls-15">
        <path class="cls-19" d="M444.3,187.81c-1.59,4.83-5.39,10.01-11.7,14.99l-22.6,17.45c-179.84,29.59-292.53-48.44-292.53-48.44,0,0,148.52,73.17,326.83,16"/>
      </g>
      <g>
        <path class="cls-6" d="M368.61,288.8l17.24,55.45c7.7,24.27-8.22,37.23-30.96,22.08l-76.32-52.14-76.32,52.14c-22.75,15.14-38.66,2.19-30.96-22.08l26.42-84.98-73.17-56.47c-14.59-11.54-15.81-24.1-7.07-30.99.11.09,99.56,80.6,251.14,116.99"/>
        <g class="cls-17">
          <rect class="cls-4" x="108.72" y="171.81" width="284.82" height="209.67"/>
        </g>
      </g>
      <g class="cls-14">
        <path class="cls-21" d="M368.61,288.8l8.49,27.31c-152.12-23.88-259.63-144.3-259.63-144.3.11.09,99.56,80.6,251.14,116.99"/>
      </g>
    </g>
    <g>
      <g>
        <text class="cls-23" transform="translate(492.67 257)"><tspan class="cls-13" x="0" y="0" xml:space="preserve">           </tspan><tspan x="348.9" y="0">NXT</tspan></text>
        <g>
          <path class="cls-7" d="M944.26,257h-7.21l-78.66-99.96v88.75c0,2.35.72,4.27,2.16,5.77,1.44,1.5,3.39,2.24,5.85,2.24v3.2h-19.22v-3.2c2.46,0,4.41-.75,5.85-2.24,1.44-1.5,2.16-3.42,2.16-5.77v-89.71c0-1.92-.48-3.58-1.44-4.97l-.48-.48c-1.5-1.71-3.52-2.56-6.09-2.56v-3.2h25.63l68.24,86.67v-75.45c0-2.35-.72-4.27-2.16-5.77-1.44-1.49-3.39-2.24-5.85-2.24v-3.2h19.22v3.2c-2.46,0-4.41.75-5.85,2.24-1.44,1.5-2.16,3.42-2.16,5.77v100.92Z"/>
          <path class="cls-7" d="M959.16,257v-3.2c5.23,0,9.56-2.08,12.98-6.25l35.08-43.89-30.44-48.86c-2.88-4.49-6.94-6.73-12.17-6.73v-3.2h39.09v3.2c-2.46,0-4.03.62-4.73,1.84-.7,1.23-.4,2.86.88,4.89l20.34,32.52,26.27-33c1.49-1.81,1.97-3.31,1.44-4.49-.54-1.17-2.03-1.76-4.49-1.76v-3.2h20.19v3.2c-5.23,0-9.56,2.08-12.98,6.25l-28.67,35.88,35.4,56.87c2.88,4.49,6.94,6.73,12.17,6.73v3.2h-39.09v-3.2c2.46,0,4.03-.61,4.73-1.84.69-1.23.4-2.86-.88-4.89l-25.31-40.53-32.68,41.01c-1.5,1.82-1.98,3.31-1.44,4.49.53,1.18,2.03,1.76,4.49,1.76v3.2h-20.19Z"/>
          <path class="cls-7" d="M1074.02,178.34v-33.48h108.93v33.48h-3.2v-1.28c0-8.76-2.64-15.78-7.93-21.07-5.29-5.29-12.31-7.93-21.07-7.93h-4.65c-2.35,0-4.27.75-5.77,2.24-1.5,1.5-2.24,3.42-2.24,5.77v89.71c0,2.35.75,4.27,2.24,5.77,1.49,1.5,3.42,2.24,5.77,2.24v3.2h-35.24v-3.2c2.35,0,4.27-.75,5.77-2.24,1.49-1.5,2.24-3.42,2.24-5.77v-89.71c0-2.35-.75-4.27-2.24-5.77-1.5-1.49-3.42-2.24-5.77-2.24h-4.65c-8.76,0-15.78,2.64-21.07,7.93-5.29,5.29-7.93,12.31-7.93,21.07v1.28h-3.2Z"/>
        </g>
      </g>
      <path class="cls-18" d="M580.61,149.43c.65.32,1.51.81,2.58,1.45,3.66,1.94,6.56,2.91,8.72,2.91.75,0,1.43-.08,2.02-.24.59-.16,1.1-.4,1.53-.73.43-.32.81-.62,1.13-.89.32-.27.65-.73.97-1.37.32-.65.54-1.05.65-1.21.11-.16.32-.62.65-1.37.32-.75.48-1.18.48-1.29h1.13v33.26h-2.1c-1.94-8.18-5.68-15.04-11.22-20.59-5.54-5.54-11.71-9.42-18.49-11.62-6.78-2.2-13.99-3.31-21.63-3.31-10.55,0-19.78,1.99-27.69,5.97-7.91,3.98-11.87,8.88-11.87,14.69,0,4.2,1.75,7.75,5.25,10.66,3.5,2.91,8.07,5.22,13.72,6.94,5.65,1.72,11.87,3.28,18.65,4.68,6.78,1.4,13.56,3.01,20.34,4.84,6.78,1.83,13,4.01,18.65,6.54,5.65,2.53,10.22,6.05,13.72,10.58,3.5,4.52,5.25,9.85,5.25,15.98,0,7.53-2.26,14.05-6.78,19.54-4.52,5.49-10.25,9.5-17.19,12.03-6.94,2.53-14.61,3.79-23.01,3.79-12.7,0-23.95-2.69-33.74-8.07h-.16c-.22-.11-.43-.27-.65-.48-.65-.32-1.51-.81-2.58-1.45-3.66-1.94-6.57-2.91-8.72-2.91-.75,0-1.43.08-2.02.24-.59.16-1.1.4-1.53.73-.43.32-.81.62-1.13.89-.32.27-.65.73-.97,1.37s-.54,1.05-.65,1.21c-.11.16-.32.62-.65,1.37-.32.75-.48,1.19-.48,1.29h-1.13v-33.26h2.1c1.94,8.18,5.68,15.04,11.22,20.59,5.54,5.55,11.71,9.42,18.49,11.62,6.78,2.21,13.99,3.31,21.63,3.31,10.55,0,19.78-1.99,27.69-5.97,7.91-3.98,11.87-8.88,11.87-14.69,0-4.41-1.75-8.15-5.25-11.22-3.5-3.07-8.07-5.46-13.72-7.18-5.65-1.72-11.87-3.28-18.65-4.68-6.78-1.4-13.56-2.96-20.34-4.68-6.78-1.72-13-3.79-18.65-6.22-5.65-2.42-10.23-5.87-13.72-10.33-3.5-4.47-5.25-9.77-5.25-15.9,0-7.53,2.26-14.05,6.78-19.54,4.52-5.49,10.25-9.5,17.19-12.03,6.94-2.53,14.61-3.79,23.01-3.79,12.7,0,23.95,2.69,33.74,8.07h.16c.21.11.43.27.65.48Z"/>
      <path class="cls-18" d="M721.24,249.86c-7.97,6.35-16.42,9.53-25.35,9.53-6.78,0-12.41-1.91-16.87-5.73-4.47-3.82-6.7-9.07-6.7-15.74,0-5.06,1.21-9.26,3.63-12.59,2.42-3.34,5.51-5.7,9.28-7.1,3.77-1.4,7.91-2.69,12.43-3.87,4.52-1.18,8.85-2.15,13-2.91,4.14-.75,7.88-2.18,11.22-4.28,3.33-2.1,5.59-4.76,6.78-7.99-.75-6.67-2.66-11.87-5.73-15.58-3.07-3.71-6.86-5.57-11.38-5.57-7.43,0-12.49,1.99-15.18,5.97-1.4,2.05-1.56,3.34-.48,3.88.21.11.43.16.65.16,4.09,0,6.67,2.05,7.75,6.14.97,4.09,0,7.59-2.91,10.49-2.05,1.94-4.47,2.91-7.27,2.91-3.23,0-5.76-1.02-7.59-3.07-1.83-2.04-2.74-4.47-2.74-7.27,0-6.03,2.77-11.27,8.31-15.74,5.54-4.47,12.03-6.7,19.45-6.7,10.33,0,19.05,2.88,26.16,8.64,7.1,5.76,10.66,13.32,10.66,22.68v17.6l30.03-23.57v-12.43c0-2.37-.73-4.3-2.18-5.81-1.45-1.51-3.42-2.26-5.89-2.26v-3.23h27.45v8.4l6.62-5.17c.11-.11.3-.27.57-.48.27-.21.46-.38.57-.48.11,0,.24-.11.4-.32.16-.21.3-.32.4-.32,4.84-3.23,9.9-5.01,15.18-5.33h1.29c3.66,0,6.54,1.24,8.64,3.71,2.1,2.48,3.15,5.17,3.15,8.07s-1.05,5.6-3.15,8.07c-2.1,2.48-4.98,3.71-8.64,3.71s-6.19-1.13-7.91-3.39c-1.72-2.26-2.58-5-2.58-8.23s-.75-4.68-2.26-4.68c-.75,0-1.56.32-2.42.97-.54.32-1.19.86-1.94,1.61l-84.44,67.33ZM693.95,237.91c0,9.8,3.12,14.69,9.36,14.69s14.8-4.47,25.67-13.4v-34.87c-1.83,3.23-4.31,5.87-7.43,7.91-3.12,2.05-6.22,3.61-9.28,4.68-3.07,1.08-6,2.29-8.8,3.63-2.8,1.35-5.09,3.42-6.86,6.22-1.78,2.8-2.66,6.51-2.66,11.14ZM750.94,257.93c-.65,0-1.64.02-2.99.08-1.35.05-2.4.08-3.15.08-3.77,0-6.92-.84-9.44-2.5-2.53-1.67-4.17-4.92-4.92-9.77l12.27-10.17c1.18-1.07,2.31-1.61,3.39-1.61,1.51,0,2.26,1.4,2.26,4.2v11.38c0,.59.02,1.08.08,1.45.05.38.11.78.16,1.21.05.43.16.78.32,1.05.16.27.32.51.48.73.16.22.38.38.65.48.27.11.57.16.89.16,3.23,0,4.84-1.45,4.84-4.36l3.23.65c0,2.15-.78,3.85-2.34,5.09-1.56,1.24-3.47,1.86-5.73,1.86ZM770.32,257.12v-3.23c2.47,0,4.44-.75,5.89-2.26,1.45-1.51,2.18-3.44,2.18-5.81v-38.1l13.4-10.82c1.18-1.07,2.31-1.61,3.39-1.61,1.72,0,2.58,1.45,2.58,4.36v46.17c0,2.37.73,4.31,2.18,5.81,1.45,1.51,3.42,2.26,5.89,2.26v3.23h-35.52Z"/>
      <path class="cls-18" d="M663.28,235.81c-.75,0-1.29.81-1.61,2.42-.65,4.74-2.1,8.8-4.36,12.19-2.26,3.39-5.33,5.09-9.2,5.09-3.55,0-5.92-1.78-7.1-5.33-.75-2.15-1.13-7.32-1.13-15.5v-55.05h24.86v-3.23h-24.86v-.24h-13.38c-.87.16-1.79.24-2.76.24h-17.76v3.23h14.53v58.28c0,13.56,8.88,20.34,26.64,20.34,8.72,0,15.07-4.95,19.05-14.85l-2.91-7.59Z"/>
      <path class="cls-20" d="M628.73,159.16l-5.56,5.56c-.3.3-.7.46-1.12.46h-6.39c-1.41,0-2.12-1.7-1.13-2.7l14.21-14.33c.62-.62,1.62-.63,2.25,0l14.42,14.33c1,1,.3,2.71-1.12,2.71h-6.67c-.42,0-.83-.17-1.13-.47l-5.51-5.55c-.62-.62-1.63-.63-2.25,0Z"/>
    </g>
  </g>
</svg>